<svg fill="#FFFFFF" xmlns="http://www.w3.org/2000/svg" xmlns:xlink="http://www.w3.org/1999/xlink" version="1.1" x="0px" y="0px" viewBox="0 0 100 100" enable-background="new 0 0 100 100" xml:space="preserve"><g><g><path fill="#FFFFFF" d="M70.619,49.982c0,1.273-1.031,2.306-2.307,2.306H31.691c-1.275,0-2.307-1.033-2.307-2.307    s1.031-2.305,2.307-2.306l36.621,0.001C69.588,47.677,70.619,48.708,70.619,49.982z"></path><path fill="#FFFFFF" d="M48.514,35.462c0,0.592-0.227,1.184-0.676,1.634L34.953,49.979l12.885,12.888    c0.902,0.899,0.902,2.36,0,3.262c-0.9,0.9-2.361,0.902-3.264,0L30.061,51.61c-0.898-0.898-0.898-2.363,0-3.262l14.516-14.517    c0.9-0.901,2.361-0.902,3.262,0C48.287,34.282,48.514,34.872,48.514,35.462z"></path></g><path fill="#FFFFFF" d="M94.979,49.98c0,24.802-20.178,44.978-44.979,44.979C25.199,94.96,5.021,74.782,5.021,49.98   S25.199,5.001,49.999,5.001C74.801,5.001,94.979,25.18,94.979,49.98z M9.635,49.979c0,22.258,18.107,40.367,40.365,40.367   c22.257,0,40.365-18.108,40.365-40.366C90.365,27.724,72.257,9.614,50,9.614C27.742,9.615,9.635,27.724,9.635,49.979z"></path></g></svg>