<?xml version="1.0" encoding="UTF-8"?>
<svg width="158px" height="156px" viewBox="0 0 158 156" version="1.1" xmlns="http://www.w3.org/2000/svg" xmlns:xlink="http://www.w3.org/1999/xlink">
    <!-- Generator: Sketch 49.1 (51147) - http://www.bohemiancoding.com/sketch -->
    <title>graphics / eu-flag</title>
    <desc>Created with Sketch.</desc>
    <defs></defs>
    <g id="Country-Matcher" stroke="none" stroke-width="1" fill="none" fill-rule="evenodd">
        <g id="Splashscreen-#2" transform="translate(-109.000000, -126.000000)" fill="#FFD300">
            <g id="main" transform="translate(45.000000, 126.000000)">
                <g id="logo" transform="translate(64.000000, 0.000000)">
                    <g id="graphics-/-eu-flag">
                        <g id="eu-[Konvertiert]">
                            <polygon id="Shape" fill-rule="nonzero" points="21.0610638 33.5151064 23.5907447 41.2985106 31.8857447 41.2985106 25.1791489 46.1195745 27.7676596 53.9029787 21.0610638 49.0819149 14.3544681 53.9029787 16.8841489 46.1195745 10.1775532 41.2985106 18.4725532 41.2985106"></polygon>
                            <polygon id="Shape" fill-rule="nonzero" points="45.0047872 9.46787234 47.5344681 17.2512766 55.8294681 17.2512766 49.1228723 22.0142553 51.711383 29.7976596 45.0047872 25.0346809 38.2981915 29.7976596 40.8278723 22.0142553 34.1212766 17.2512766 42.4162766 17.2512766"></polygon>
                            <polygon id="Shape" fill-rule="nonzero" points="79.1260638 0.348510638 81.6557447 8.13191489 89.9507447 8.13191489 83.2441489 12.9529787 85.8326596 20.736383 79.1260638 15.9153191 72.4194681 20.736383 74.9491489 12.9529787 68.2425532 8.13191489 76.5375532 8.13191489"></polygon>
                            <polygon id="Shape" fill-rule="nonzero" points="112.835532 9.52595745 115.424043 17.2512766 123.660213 17.2512766 116.953617 22.0723404 119.542128 29.8557447 112.835532 25.0346809 106.128936 29.8557447 108.717447 22.0723404 102.010851 17.2512766 110.305851 17.2512766"></polygon>
                            <polygon id="Shape" fill-rule="nonzero" points="137.661702 34.0378723 140.250213 41.8212766 148.545213 41.8212766 141.838617 46.5842553 144.368298 54.3676596 137.661702 49.6046809 130.955106 54.3676596 133.543617 46.5842553 126.837021 41.8212766 135.132021 41.8212766"></polygon>
                            <polygon id="Shape" fill-rule="nonzero" points="146.897979 67.727234 149.42766 75.4525532 157.72266 75.4525532 151.016064 80.273617 153.604574 88.0570213 146.897979 83.2359574 140.191383 88.0570213 142.721064 80.273617 136.014468 75.4525532 144.309468 75.4525532"></polygon>
                            <polygon id="Shape" fill-rule="nonzero" points="137.661702 101.474681 140.191383 109.258085 148.486383 109.258085 141.779787 114.079149 144.368298 121.862553 137.661702 117.041489 130.955106 121.862553 133.484787 114.079149 126.778191 109.258085 135.073191 109.258085"></polygon>
                            <polygon id="Shape" fill-rule="nonzero" points="112.835532 125.870426 115.365213 133.65383 123.660213 133.65383 116.953617 138.416809 119.542128 146.200213 112.835532 141.437234 106.128936 146.200213 108.658617 138.416809 101.952021 133.65383 110.247021 133.65383"></polygon>
                            <polygon id="Shape" fill-rule="nonzero" points="79.1848936 134.757447 81.7734043 142.540851 90.0095745 142.540851 83.3618085 147.361915 85.8914894 155.145319 79.1848936 150.324255 72.4782979 155.145319 75.0668085 147.361915 68.3602128 142.540851 76.6552128 142.540851"></polygon>
                            <polygon id="Shape" fill-rule="nonzero" points="45.063617 125.69617 47.6521277 133.479574 55.9471277 133.479574 49.2405319 138.242553 51.7702128 146.025957 45.063617 141.262979 38.3570213 146.025957 40.9455319 138.242553 34.2389362 133.479574 42.5339362 133.479574"></polygon>
                            <polygon id="Shape" fill-rule="nonzero" points="20.7669149 101.358511 23.2965957 109.08383 31.5915957 109.08383 24.885 113.904894 27.4146809 121.688298 20.7669149 116.867234 14.0603191 121.688298 16.59 113.904894 9.88340426 109.08383 18.1784043 109.08383"></polygon>
                            <polygon id="Shape" fill-rule="nonzero" points="11.4129787 67.0882979 14.0014894 74.9297872 22.3553191 74.9297872 15.5898936 79.8089362 18.1784043 87.6504255 11.4129787 82.7712766 4.64755319 87.6504255 7.23606383 79.8089362 0.470638298 74.9297872 8.82446809 74.9297872"></polygon>
                        </g>
                    </g>
                </g>
            </g>
        </g>
    </g>
</svg>