<?xml version="1.0" encoding="UTF-8"?>
<svg width="200px" height="197px" viewBox="0 0 200 197" version="1.1" xmlns="http://www.w3.org/2000/svg" xmlns:xlink="http://www.w3.org/1999/xlink">
    <!-- Generator: Sketch 49.1 (51147) - http://www.bohemiancoding.com/sketch -->
    <title>graphics / eu-flag</title>
    <desc>Created with Sketch.</desc>
    <defs></defs>
    <g id="Country-Matcher" stroke="none" stroke-width="1" fill="none" fill-rule="evenodd">
        <g id="Splashscreen-#1" transform="translate(-88.000000, -95.000000)" fill="#FFD300">
            <g id="main" transform="translate(45.000000, 95.000000)">
                <g id="logo" transform="translate(43.000000, 0.000000)">
                    <g id="graphics-/-eu-flag">
                        <g id="eu-[Konvertiert]">
                            <polygon id="Shape" fill-rule="nonzero" points="26.6595745 42.5384043 29.8617021 52.4173404 40.3617021 52.4173404 31.8723404 58.536383 35.1489362 68.4153191 26.6595745 62.2962766 18.1702128 68.4153191 21.3723404 58.536383 12.8829787 52.4173404 23.3829787 52.4173404"></polygon>
                            <polygon id="Shape" fill-rule="nonzero" points="56.9680851 12.0169149 60.1702128 21.8958511 70.6702128 21.8958511 62.1808511 27.9411702 65.4574468 37.8201064 56.9680851 31.7747872 48.4787234 37.8201064 51.6808511 27.9411702 43.1914894 21.8958511 53.6914894 21.8958511"></polygon>
                            <polygon id="Shape" fill-rule="nonzero" points="100.159574 0.442340426 103.361702 10.3212766 113.861702 10.3212766 105.37234 16.4403191 108.648936 26.3192553 100.159574 20.2002128 91.6702128 26.3192553 94.8723404 16.4403191 86.3829787 10.3212766 96.8829787 10.3212766"></polygon>
                            <polygon id="Shape" fill-rule="nonzero" points="142.829787 12.0906383 146.106383 21.8958511 156.531915 21.8958511 148.042553 28.0148936 151.319149 37.8938298 142.829787 31.7747872 134.340426 37.8938298 137.617021 28.0148936 129.12766 21.8958511 139.62766 21.8958511"></polygon>
                            <polygon id="Shape" fill-rule="nonzero" points="174.255319 43.2019149 177.531915 53.0808511 188.031915 53.0808511 179.542553 59.1261702 182.744681 69.0051064 174.255319 62.9597872 165.765957 69.0051064 169.042553 59.1261702 160.553191 53.0808511 171.053191 53.0808511"></polygon>
                            <polygon id="Shape" fill-rule="nonzero" points="185.946809 85.9614894 189.148936 95.7667021 199.648936 95.7667021 191.159574 101.885745 194.43617 111.764681 185.946809 105.645638 177.457447 111.764681 180.659574 101.885745 172.170213 95.7667021 182.670213 95.7667021"></polygon>
                            <polygon id="Shape" fill-rule="nonzero" points="174.255319 128.794787 177.457447 138.673723 187.957447 138.673723 179.468085 144.792766 182.744681 154.671702 174.255319 148.55266 165.765957 154.671702 168.968085 144.792766 160.478723 138.673723 170.978723 138.673723"></polygon>
                            <polygon id="Shape" fill-rule="nonzero" points="142.829787 159.758617 146.031915 169.637553 156.531915 169.637553 148.042553 175.682872 151.319149 185.561809 142.829787 179.516489 134.340426 185.561809 137.542553 175.682872 129.053191 169.637553 139.553191 169.637553"></polygon>
                            <polygon id="Shape" fill-rule="nonzero" points="100.234043 171.038298 103.510638 180.917234 113.93617 180.917234 105.521277 187.036277 108.723404 196.915213 100.234043 190.79617 91.7446809 196.915213 95.0212766 187.036277 86.5319149 180.917234 97.0319149 180.917234"></polygon>
                            <polygon id="Shape" fill-rule="nonzero" points="57.0425532 159.537447 60.3191489 169.416383 70.8191489 169.416383 62.3297872 175.461702 65.5319149 185.340638 57.0425532 179.295319 48.5531915 185.340638 51.8297872 175.461702 43.3404255 169.416383 53.8404255 169.416383"></polygon>
                            <polygon id="Shape" fill-rule="nonzero" points="26.287234 128.64734 29.4893617 138.452553 39.9893617 138.452553 31.5 144.571596 34.7021277 154.450532 26.287234 148.331489 17.7978723 154.450532 21 144.571596 12.5106383 138.452553 23.0106383 138.452553"></polygon>
                            <polygon id="Shape" fill-rule="nonzero" points="14.4468085 85.1505319 17.7234043 95.1031915 28.2978723 95.1031915 19.7340426 101.295957 23.0106383 111.248617 14.4468085 105.055851 5.88297872 111.248617 9.15957447 101.295957 0.595744681 95.1031915 11.1702128 95.1031915"></polygon>
                        </g>
                    </g>
                </g>
            </g>
        </g>
    </g>
</svg>