<?xml version="1.0" encoding="UTF-8"?>
<svg width="37px" height="38px" viewBox="0 0 37 38" version="1.1" xmlns="http://www.w3.org/2000/svg" xmlns:xlink="http://www.w3.org/1999/xlink">
    <!-- Generator: Sketch 49.1 (51147) - http://www.bohemiancoding.com/sketch -->
    <title></title>
    <desc>Created with Sketch.</desc>
    <defs></defs>
    <g id="-" stroke="none" stroke-width="1" fill="none" fill-rule="evenodd">
        <g id="00" transform="translate(-169.000000, -506.000000)" fill="#FFFFFF">
            <g id="share" transform="translate(19.000000, 455.000000)">
                <path d="M186.915928,55.812572 L186.915928,84.6875031 C186.915928,85.7812501 186.533116,86.7109362 185.767493,87.476559 C185.00187,88.2421817 184.072184,88.6249937 182.978437,88.6249937 L176.005798,88.6249937 L176.005798,74.1054971 L180.927661,74.1054971 L181.665941,68.5273854 L176.005798,68.5273854 L176.005798,65.0000501 C176.005798,64.1250517 176.16986,63.4688033 176.497984,63.0313048 C176.935483,62.5391184 177.673762,62.2930253 178.712823,62.2930253 L181.665941,62.2930253 L181.665941,57.371162 C180.517506,57.2070999 179.095635,57.1250688 177.400326,57.1250688 C175.21283,57.1250688 173.476507,57.767645 172.191354,59.0527986 C170.9062,60.3379522 170.263624,62.1289632 170.263624,64.4258327 L170.263624,68.5273854 L165.25973,68.5273854 L165.25973,74.1054971 L170.263624,74.1054971 L170.263624,88.6249937 L154.103506,88.6249937 C153.009759,88.6249937 152.080073,88.2421817 151.31445,87.476559 C150.548828,86.7109362 150.166016,85.7812501 150.166016,84.6875031 L150.166016,55.812572 C150.166016,54.718825 150.548828,53.7891389 151.31445,53.0235161 C152.080073,52.2578934 153.009759,51.8750814 154.103506,51.8750814 L182.978437,51.8750814 C184.072184,51.8750814 185.00187,52.2578934 185.767493,53.0235161 C186.533116,53.7891389 186.915928,54.718825 186.915928,55.812572 Z" id=""></path>
            </g>
        </g>
    </g>
</svg>