<?xml version="1.0" encoding="UTF-8"?>
<svg width="37px" height="38px" viewBox="0 0 37 38" version="1.1" xmlns="http://www.w3.org/2000/svg" xmlns:xlink="http://www.w3.org/1999/xlink">
    <!-- Generator: Sketch 49.1 (51147) - http://www.bohemiancoding.com/sketch -->
    <title></title>
    <desc>Created with Sketch.</desc>
    <defs></defs>
    <g id="-" stroke="none" stroke-width="1" fill="none" fill-rule="evenodd">
        <g id="00" transform="translate(-169.000000, -599.000000)" fill="#FFFFFF">
            <g id="share" transform="translate(19.000000, 455.000000)">
                <path d="M168.540972,152.339907 C169.962843,152.339907 171.330028,152.613344 172.642525,153.160218 C173.955021,153.707092 175.130799,154.486387 176.16986,155.498103 C177.20892,156.509819 178.015559,157.685598 178.589776,159.025438 C179.163993,160.365278 179.451102,161.746135 179.451102,163.168006 C179.451102,165.082064 178.958916,166.873076 177.974543,168.541041 C176.99017,170.209005 175.664001,171.521502 173.996037,172.478531 C172.328073,173.435561 170.509717,173.914075 168.540972,173.914075 C166.572227,173.968762 164.7402,173.476576 163.044891,172.437516 L162.634736,172.191422 L158.533183,173.257826 L159.599587,169.320336 L159.353494,168.91018 C158.259747,167.160185 157.712873,165.246126 157.712873,163.168006 C157.712873,161.199261 158.205059,159.380906 159.189432,157.712941 C160.173804,156.044977 161.486301,154.73248 163.126922,153.775451 C164.767543,152.818421 166.572227,152.339907 168.540972,152.339907 Z M174.939394,167.761746 C175.048768,167.433621 175.117128,167.119169 175.144472,166.818388 C175.171815,166.517607 175.158144,166.326202 175.103456,166.244171 C175.048768,166.16214 174.884706,166.066437 174.61127,165.957062 L174.447208,165.875031 C173.244085,165.218783 172.492135,164.835971 172.191354,164.726597 C171.890573,164.617222 171.658152,164.699253 171.49409,164.97269 C171.330028,165.246126 171.001903,165.656281 170.509717,166.203156 C170.345655,166.421905 170.099562,166.449249 169.771438,166.285187 C168.677691,165.738312 167.85738,165.246126 167.310506,164.808628 C166.59957,164.207067 165.943321,163.4141 165.341761,162.429727 C165.287073,162.265665 165.273402,162.142618 165.300745,162.060587 C165.328088,161.978556 165.423792,161.85551 165.587854,161.691448 C165.915978,161.363323 166.162071,161.007856 166.326133,160.625044 C166.435508,160.460982 166.435508,160.269576 166.326133,160.050826 L165.25973,157.671926 C165.150355,157.289114 164.931605,157.097708 164.603481,157.097708 L163.947233,157.097708 C163.619109,157.097708 163.318328,157.234427 163.044891,157.507864 L163.044891,157.589895 C162.279268,158.355518 161.896456,159.257859 161.896456,160.29692 C161.896456,161.33598 162.361299,162.429727 163.290984,163.578162 L163.290984,163.660193 C164.931605,166.01175 166.763632,167.625027 168.787065,168.500025 C169.771438,168.937524 170.53706,169.210961 171.083935,169.320336 C171.630809,169.42971 172.177681,169.42971 172.724556,169.320336 C173.05268,169.265648 173.462835,169.087915 173.955021,168.787134 C174.447208,168.486353 174.775332,168.144558 174.939394,167.761746 Z M182.978437,144.875081 C184.072184,144.875081 185.00187,145.257893 185.767493,146.023516 C186.533116,146.789139 186.915928,147.718825 186.915928,148.812572 L186.915928,177.687503 C186.915928,178.78125 186.533116,179.710936 185.767493,180.476559 C185.00187,181.242182 184.072184,181.624994 182.978437,181.624994 L154.103506,181.624994 C153.009759,181.624994 152.080073,181.242182 151.31445,180.476559 C150.548828,179.710936 150.166016,178.78125 150.166016,177.687503 L150.166016,148.812572 C150.166016,147.718825 150.548828,146.789139 151.31445,146.023516 C152.080073,145.257893 153.009759,144.875081 154.103506,144.875081 L182.978437,144.875081 Z M168.540972,176.128913 C170.892529,176.128913 173.080023,175.541023 175.103456,174.365245 C177.126889,173.189467 178.726495,171.617205 179.902273,169.64846 C181.078051,167.679714 181.665941,165.519564 181.665941,163.168006 C181.665941,161.418011 181.324144,159.750045 180.640552,158.164112 C179.956961,156.578179 178.999931,155.169979 177.769465,153.939513 C176.539,152.709047 175.130799,151.76569 173.544866,151.109441 C171.958933,150.453193 170.290967,150.125069 168.540972,150.125069 C166.189415,150.125069 164.015592,150.712958 162.019503,151.888737 C160.023414,153.064515 158.43748,154.650449 157.261702,156.646538 C156.085924,158.642626 155.498034,160.802778 155.498034,163.126991 C155.498034,165.451204 156.099595,167.625027 157.302717,169.64846 L155.416003,176.375006 L162.306612,174.570323 C164.220669,175.609384 166.29879,176.128913 168.540972,176.128913 Z" id=""></path>
            </g>
        </g>
    </g>
</svg>