<?xml version="1.0" encoding="UTF-8"?>
<svg width="37px" height="37px" viewBox="0 0 37 37" version="1.1" xmlns="http://www.w3.org/2000/svg" xmlns:xlink="http://www.w3.org/1999/xlink">
    <!-- Generator: Sketch 49.1 (51147) - http://www.bohemiancoding.com/sketch -->
    <title></title>
    <desc>Created with Sketch.</desc>
    <defs></defs>
    <g id="-" stroke="none" stroke-width="1" fill="none" fill-rule="evenodd">
        <g id="00" transform="translate(-169.000000, -455.000000)" fill="#FFFFFF">
            <g id="share" transform="translate(19.000000, 455.000000)">
                <path d="M182.812422,0 C183.906169,0 184.835855,0.382812005 185.601478,1.14843476 C186.3671,1.91405752 186.749912,2.84374364 186.749912,3.93749061 L186.749912,32.8124218 C186.749912,33.9061687 186.3671,34.8358549 185.601478,35.6014776 C184.835855,36.3671004 183.906169,36.7499124 182.812422,36.7499124 L153.937491,36.7499124 C152.843744,36.7499124 151.914058,36.3671004 151.148435,35.6014776 C150.382812,34.8358549 150,33.9061687 150,32.8124218 L150,3.93749061 C150,2.84374364 150.382812,1.91405752 151.148435,1.14843476 C151.914058,0.382812005 152.843744,0 153.937491,0 L182.812422,0 Z M163.453093,26.5780616 C165.80465,26.5780616 167.705035,25.8397821 169.154251,24.3632232 C170.603467,22.8866642 171.328074,20.9452621 171.328074,18.5390183 C171.328074,18.1015198 171.273386,17.66402 171.164012,17.2265214 L163.453093,17.2265214 L163.453093,20.0155773 L168.128863,20.0155773 C167.964801,20.8358878 167.554646,21.5741673 166.898397,22.2304157 C166.023399,23.1054141 164.888636,23.5429126 163.494108,23.5429126 C162.099581,23.5429126 160.896458,23.037054 159.884742,22.0253381 C158.873026,21.0136222 158.367168,19.7968274 158.367168,18.3749562 C158.367168,16.953085 158.859354,15.7362902 159.843727,14.7245743 C160.828099,13.7128583 162.003877,13.2069998 163.371062,13.2069998 C164.738247,13.2069998 165.859337,13.617155 166.734335,14.4374656 L168.949174,12.3046582 C167.417927,10.882787 165.5859,10.1718507 163.453093,10.1718507 C161.210911,10.1718507 159.283181,10.978489 157.669904,12.5917669 C156.056626,14.2050447 155.249987,16.1327745 155.249987,18.3749562 C155.249987,20.6171379 156.056626,22.5448677 157.669904,24.1581455 C159.283181,25.7714233 161.210911,26.5780616 163.453093,26.5780616 Z M181.499925,19.8515152 L181.499925,17.4726146 L179.121024,17.4726146 L179.121024,15.093714 L176.742124,15.093714 L176.742124,17.4726146 L174.363223,17.4726146 L174.363223,19.8515152 L176.742124,19.8515152 L176.742124,22.2304157 L179.121024,22.2304157 L179.121024,19.8515152 L181.499925,19.8515152 Z" id=""></path>
            </g>
        </g>
    </g>
</svg>