<?xml version="1.0" encoding="UTF-8"?>
<svg width="59px" height="59px" viewBox="0 0 59 59" version="1.1" xmlns="http://www.w3.org/2000/svg" xmlns:xlink="http://www.w3.org/1999/xlink">
    <!-- Generator: Sketch 49.1 (51147) - http://www.bohemiancoding.com/sketch -->
    <title>Icon Dislike</title>
    <desc>Created with Sketch.</desc>
    <defs>
        <polygon id="path-1" points="0.000155263158 0.621052632 58.3013158 0.621052632 58.3013158 58.9998447 0.000155263158 58.9998447"></polygon>
    </defs>
    <g id="Icon-Dislike" stroke="none" stroke-width="1" fill="none" fill-rule="evenodd">
        <g>
            <g id="Group-3">
                <mask id="mask-2" fill="white">
                    <use xlink:href="#path-1"></use>
                </mask>
                <g id="Clip-2"></g>
                <path d="M29.1896289,3.10510789 C14.4396289,3.10510789 2.48436579,15.0603711 2.48436579,29.8103711 C2.48436579,44.5603711 14.4396289,56.5156342 29.1896289,56.5156342 C43.9396289,56.5156342 55.8941158,44.5603711 55.8941158,29.8103711 C55.8941158,15.0603711 43.9396289,3.10510789 29.1896289,3.10510789 M29.1896289,58.9998447 C13.1198921,58.9998447 0.000155263158,45.9585158 0.000155263158,29.8103711 C0.000155263158,13.6630026 13.0422605,0.620897368 29.1896289,0.620897368 C45.3369974,0.620897368 58.3014711,13.6630026 58.3014711,29.8103711 C58.3014711,45.9585158 45.2593658,58.9998447 29.1896289,58.9998447" id="Fill-1" fill="#FFFFFF" mask="url(#mask-2)"></path>
            </g>
            <polygon id="Fill-4" fill="#FFFFFF" points="16.8571429 19.801415 18.5973334 18.0612245 40.9387755 40.4026666 39.198585 42.1428571"></polygon>
            <polygon id="Fill-6" fill="#FFFFFF" points="16.8571429 40.402724 39.198585 18.0612245 40.9387755 19.8013576 18.5973334 42.1428571"></polygon>
        </g>
    </g>
</svg>