<?xml version="1.0" encoding="UTF-8"?>
<svg width="256px" height="91px" viewBox="0 0 256 91" version="1.1" xmlns="http://www.w3.org/2000/svg" xmlns:xlink="http://www.w3.org/1999/xlink">
    <!-- Generator: Sketch 49.1 (51147) - http://www.bohemiancoding.com/sketch -->
    <title>infographic</title>
    <desc>Created with Sketch.</desc>
    <defs></defs>
    <g id="-" stroke="none" stroke-width="1" fill="none" fill-rule="evenodd">
        <g id="00" transform="translate(-59.000000, -347.000000)">
            <g id="infographic" transform="translate(59.000000, 347.000000)">
                <g id="wellbeeing">
                    <g id="ring">
                        <g transform="translate(2.400000, 2.400000)" fill="#FFFFFF" id="Combined-Shape">
                            <path d="M27.6,55.2 C12.3569409,55.2 0,42.8430591 0,27.6 C0,12.3569409 12.3569409,0 27.6,0 C42.8430591,0 55.2,12.3569409 55.2,27.6 C55.2,42.8430591 42.8430591,55.2 27.6,55.2 Z M27.6,52 C41.0757479,52 52,41.0757479 52,27.6 C52,14.1242521 41.0757479,3.2 27.6,3.2 C14.1242521,3.2 3.2,14.1242521 3.2,27.6 C3.2,41.0757479 14.1242521,52 27.6,52 Z"></path>
                        </g>
                        <path d="M8.22226563,73.7105469 L8.33359375,74.665625 L8.50351563,73.821875 L9.86875,67.86875 L10.7652344,67.86875 L12.0894531,73.821875 L12.259375,74.6890625 L12.3824219,73.7046875 L13.4253906,67.86875 L14.4976563,67.86875 L12.7984375,76.4 L11.8316406,76.4 L10.4078125,70.1832031 L10.3199219,69.6792969 L10.2320313,70.1832031 L8.75546875,76.4 L7.7828125,76.4 L6.08945313,67.86875 L7.16171875,67.86875 L8.22226563,73.7105469 Z M17.6734375,76.5171875 C16.8843711,76.5171875 16.2789084,76.2818383 15.8570312,75.8111328 C15.4351541,75.3404273 15.2203125,74.6500046 15.2125,73.7398438 L15.2125,72.9722656 C15.2125,72.0269484 15.4185526,71.2857449 15.8306641,70.7486328 C16.2427755,70.2115208 16.8179651,69.9429688 17.55625,69.9429688 C18.2984412,69.9429688 18.8531232,70.1792945 19.2203125,70.6519531 C19.5875018,71.1246117 19.775,71.8609325 19.7828125,72.8609375 L19.7828125,73.540625 L16.24375,73.540625 L16.24375,73.6871094 C16.24375,74.3668003 16.3716784,74.860936 16.6275391,75.1695313 C16.8833997,75.4781265 17.2515601,75.6324219 17.7320312,75.6324219 C18.0367203,75.6324219 18.3052723,75.5748053 18.5376953,75.4595703 C18.7701183,75.3443354 18.9878896,75.16172 19.1910156,74.9117188 L19.7300781,75.5679688 C19.2808571,76.2007844 18.5953171,76.5171875 17.6734375,76.5171875 Z M17.55625,70.8335938 C17.1265604,70.8335938 16.8082042,70.9810532 16.6011719,71.2759766 C16.3941396,71.5708999 16.2769533,72.0289031 16.2496094,72.65 L18.7457031,72.65 L18.7457031,72.509375 C18.7183592,71.9078095 18.6099619,71.4781263 18.4205078,71.2203125 C18.2310537,70.9624987 17.9429707,70.8335938 17.55625,70.8335938 Z M22.1441406,76.4 L21.1070312,76.4 L21.1070312,67.4 L22.1441406,67.4 L22.1441406,76.4 Z M24.8921875,76.4 L23.8550781,76.4 L23.8550781,67.4 L24.8921875,67.4 L24.8921875,76.4 Z M29.415625,76.4 L29.415625,67.86875 L31.8472656,67.86875 C32.6246133,67.86875 33.2095683,68.0582012 33.6021484,68.4371094 C33.9947285,68.8160175 34.1910156,69.3843712 34.1910156,70.1421875 C34.1910156,70.540627 34.0914072,70.892186 33.8921875,71.196875 C33.6929678,71.501564 33.4234392,71.7378898 33.0835938,71.9058594 C33.4742207,72.0230475 33.7837879,72.2632794 34.0123047,72.6265625 C34.2408215,72.9898456 34.3550781,73.4273412 34.3550781,73.9390625 C34.3550781,74.7046913 34.1451193,75.3062478 33.7251953,75.74375 C33.3052713,76.1812522 32.7066445,76.4 31.9292969,76.4 L29.415625,76.4 Z M30.4878906,72.4097656 L30.4878906,75.4800781 L31.9527344,75.4800781 C32.3589864,75.4800781 32.6812488,75.3462904 32.9195312,75.0787109 C33.1578137,74.8111315 33.2769531,74.4351587 33.2769531,73.9507813 C33.2769531,72.9234324 32.8433637,72.4097656 31.9761719,72.4097656 L30.4878906,72.4097656 Z M30.4878906,71.5074219 L31.8648437,71.5074219 C32.2359394,71.5074219 32.535741,71.3824231 32.7642578,71.1324219 C32.9927746,70.8824206 33.1070312,70.5503927 33.1070312,70.1363281 C33.1070312,69.6675758 33.0035167,69.3267589 32.7964844,69.1138672 C32.5894521,68.9009755 32.273049,68.7945313 31.8472656,68.7945313 L30.4878906,68.7945313 L30.4878906,71.5074219 Z M38.0816406,76.5171875 C37.2925742,76.5171875 36.6871115,76.2818383 36.2652344,75.8111328 C35.8433573,75.3404273 35.6285157,74.6500046 35.6207031,73.7398438 L35.6207031,72.9722656 C35.6207031,72.0269484 35.8267558,71.2857449 36.2388672,70.7486328 C36.6509786,70.2115208 37.2261682,69.9429688 37.9644531,69.9429688 C38.7066443,69.9429688 39.2613263,70.1792945 39.6285156,70.6519531 C39.995705,71.1246117 40.1832031,71.8609325 40.1910156,72.8609375 L40.1910156,73.540625 L36.6519531,73.540625 L36.6519531,73.6871094 C36.6519531,74.3668003 36.7798815,74.860936 37.0357422,75.1695313 C37.2916028,75.4781265 37.6597632,75.6324219 38.1402344,75.6324219 C38.4449234,75.6324219 38.7134754,75.5748053 38.9458984,75.4595703 C39.1783215,75.3443354 39.3960927,75.16172 39.5992187,74.9117188 L40.1382812,75.5679688 C39.6890603,76.2007844 39.0035202,76.5171875 38.0816406,76.5171875 Z M37.9644531,70.8335938 C37.5347635,70.8335938 37.2164073,70.9810532 37.009375,71.2759766 C36.8023427,71.5708999 36.6851564,72.0289031 36.6578125,72.65 L39.1539062,72.65 L39.1539062,72.509375 C39.1265624,71.9078095 39.018165,71.4781263 38.8287109,71.2203125 C38.6392569,70.9624987 38.3511738,70.8335938 37.9644531,70.8335938 Z M42.5523438,76.4 L41.5152344,76.4 L41.5152344,70.0601563 L42.5523438,70.0601563 L42.5523438,76.4 Z M42.634375,68.3785156 C42.634375,68.5542978 42.5855474,68.7007807 42.4878906,68.8179688 C42.3902339,68.9351568 42.2417979,68.99375 42.0425781,68.99375 C41.8472646,68.99375 41.7007817,68.9351568 41.603125,68.8179688 C41.5054683,68.7007807 41.4566406,68.5542978 41.4566406,68.3785156 C41.4566406,68.2027335 41.5054683,68.0542975 41.603125,67.9332031 C41.7007817,67.8121088 41.8472646,67.7515625 42.0425781,67.7515625 C42.2378916,67.7515625 42.3853511,67.8130853 42.4849609,67.9361328 C42.5845708,68.0591803 42.634375,68.2066398 42.634375,68.3785156 Z M45.1597656,70.0601563 L45.1890625,70.7457031 C45.5914083,70.2105442 46.105075,69.9429688 46.7300781,69.9429688 C47.8511775,69.9429688 48.4195312,70.6910081 48.4351562,72.1871094 L48.4351562,76.4 L47.4039062,76.4 L47.4039062,72.2339844 C47.4039062,71.7378881 47.3208993,71.3853526 47.1548828,71.1763672 C46.9888664,70.9673818 46.7398454,70.8628906 46.4078125,70.8628906 C46.1499987,70.8628906 45.9185557,70.9488273 45.7134766,71.1207031 C45.5083974,71.292579 45.34336,71.5171861 45.2183594,71.7945313 L45.2183594,76.4 L44.18125,76.4 L44.18125,70.0601563 L45.1597656,70.0601563 Z M49.7828125,72.9429688 C49.7828125,71.9546826 49.9624982,71.2076197 50.321875,70.7017578 C50.6812518,70.1958959 51.2066372,69.9429688 51.8980469,69.9429688 C52.5425813,69.9429688 53.0328108,70.2183566 53.36875,70.7691406 L53.4214844,70.0601563 L54.3589844,70.0601563 L54.3589844,76.4585938 C54.3589844,77.2437539 54.1578145,77.846287 53.7554687,78.2662109 C53.353123,78.6861349 52.7925817,78.8960938 52.0738281,78.8960938 C51.7613266,78.8960938 51.4107441,78.8189461 51.0220703,78.6646484 C50.6333965,78.5103508 50.3414072,78.319923 50.1460937,78.0933594 L50.5679687,77.3785156 C50.9976584,77.8003927 51.472263,78.0113281 51.9917969,78.0113281 C52.8550824,78.0113281 53.2984374,77.5406297 53.321875,76.5992188 L53.321875,75.7730469 C52.9859358,76.2691431 52.5093781,76.5171875 51.8921875,76.5171875 C51.2359342,76.5171875 50.7242206,76.2701197 50.3570312,75.7759766 C49.9898419,75.2818335 49.7984376,74.5718796 49.7828125,73.6460938 L49.7828125,72.9429688 Z M50.8199219,73.5347656 C50.8199219,74.2457067 50.924413,74.7681624 51.1333984,75.1021484 C51.3423839,75.4361345 51.6851539,75.603125 52.1617187,75.603125 C52.6773463,75.603125 53.0640612,75.3394558 53.321875,74.8121094 L53.321875,71.6421875 C53.0523424,71.1226537 52.6695337,70.8628906 52.1734375,70.8628906 C51.6968726,70.8628906 51.3531261,71.0298811 51.1421875,71.3638672 C50.9312489,71.6978532 50.8238281,72.2105434 50.8199219,72.9019531 L50.8199219,73.5347656 Z" id="Well-Being" fill="#FFFFFF"></path>
                        <path d="M49.2,39.6 L57.6,44" id="Line" stroke="#FFFFFF" stroke-width="1.6" stroke-linecap="square"></path>
                        <rect id="Rectangle-5" fill="#0027B6" opacity="0.800000012" x="0" y="0" width="30.4" height="29.6"></rect>
                    </g>
                    <path d="M42.432266,35.6910767 C42.6799595,34.9111674 42.2418078,34.0803313 41.4538457,33.8352848 C37.936545,32.7413711 36.4429186,26.5075496 36.0927528,24.2087212 C36.0414721,23.8831946 35.8716328,23.5674312 35.8716328,23.5674312 C35.2256923,22.3510822 32.7807523,21.7834996 32.5055966,21.7506918 C32.011365,21.691849 31.9485307,21.3177704 31.927734,21.1905855 C32.7911507,20.5962641 33.374168,19.1613435 33.374168,17.865394 C33.3740791,15.9515508 33.1699342,14.4 30.535247,14.4 C30.4998749,14.4 30.3646078,14.4 30.3292357,14.4 C27.6944596,14.4 27.4904036,15.9515508 27.4904036,17.865394 C27.4904036,19.1613435 28.0734209,20.5962641 28.9367486,21.1905855 C28.915952,21.3177704 28.8339207,21.6981819 28.3588861,21.7506918 C28.0627559,21.7835875 25.2560075,22.4391265 24.878646,23.8545208 C24.878646,23.8545208 24.8322535,24.0569085 24.8041691,24.2144384 C24.8004364,24.2356359 24.5096387,26.373504 23.6394676,28.6957287 C22.8971871,30.6765068 21.5674455,33.1760516 19.4476088,33.8352848 C18.6595578,34.0803313 18.2215838,34.9112553 18.4691884,35.6911647 C18.6682675,36.317942 19.2496851,36.7204304 19.8792727,36.727291 C18.6186755,37.4447513 18.4341719,38.4450794 18.4341719,38.9634944 C18.4341719,39.1694883 18.541799,39.8393642 19.033631,40.4565542 C19.4751599,41.0113831 20.3554627,41.6727273 22.040436,41.6727273 C22.2932842,41.6727273 22.560619,41.6577747 22.8352415,41.6285732 C23.9560389,41.5093043 25.0862571,41.3301371 26.1789701,41.156951 C26.5756174,41.0940622 26.9719092,41.0313492 27.3688231,40.9711871 C27.8973603,40.8907949 28.8503625,40.8376693 30.200723,40.8131294 L30.6636708,40.8131294 C32.0140313,40.8376693 32.9670335,40.8908829 33.4955707,40.9711871 C33.8924846,41.0313492 34.2887764,41.0940622 34.6854236,41.156951 C35.7781367,41.3301371 36.9083549,41.5093043 38.0291523,41.6285732 C38.3038636,41.6577747 38.5711984,41.6727273 38.8239577,41.6727273 C40.5089311,41.6727273 41.3892339,41.0112952 41.8307628,40.4565542 C42.3225948,39.8393642 42.4302219,39.1694883 42.4302219,38.9634944 C42.4302219,38.4449915 42.2457183,37.4445754 40.9848545,36.7271151 C40.9918756,36.7272031 40.9988967,36.7279067 41.0058289,36.7279067 C41.6417266,36.7279067 42.2314983,36.3232193 42.432266,35.6910767 Z M25.0913131,35.9630938 C24.2885323,36.2072728 24.1042012,36.2329227 23.4174738,36.3282591 C23.1940194,36.3590573 22.9193096,36.3973022 22.5554438,36.4521873 C22.1991017,36.4892371 21.8723842,36.5389738 21.5712474,36.5987315 C23.6352855,35.4839293 25.3000023,33.3586709 26.533798,30.2562368 C26.6026401,30.8607086 26.6452431,31.5264089 26.6452431,32.2583944 C26.6452431,34.6466784 25.4077795,35.8667461 25.0913131,35.9630938 Z M38.2966838,36.4419163 C37.9372088,36.3878015 37.6662786,36.3461956 37.4450561,36.3197274 C35.3084607,36.0630218 34.2562368,34.6618373 34.2562368,32.3070713 C34.2562368,31.554449 34.3017635,30.8722576 34.3749778,30.2562368 C35.6013181,33.3678853 37.2636926,35.4937736 39.3302326,36.5987315 C39.0160055,36.5341925 38.6729758,36.4809841 38.2966838,36.4419163 Z" id="Shape" fill="#FFFFFF" fill-rule="nonzero"></path>
                </g>
                <g id="wellbeeing" transform="translate(93.600000, 0.000000)">
                    <g id="ring">
                        <g transform="translate(8.000000, 2.400000)" fill="#FFFFFF" id="Combined-Shape">
                            <path d="M27.6,55.2 C12.3569409,55.2 0,42.8430591 0,27.6 C0,12.3569409 12.3569409,0 27.6,0 C42.8430591,0 55.2,12.3569409 55.2,27.6 C55.2,42.8430591 42.8430591,55.2 27.6,55.2 Z M27.6,52 C41.0757479,52 52,41.0757479 52,27.6 C52,14.1242521 41.0757479,3.2 27.6,3.2 C14.1242521,3.2 3.2,14.1242521 3.2,27.6 C3.2,41.0757479 14.1242521,52 27.6,52 Z"></path>
                        </g>
                        <path d="M18.8662109,73.84375 C18.8662109,73.4179666 18.7509777,73.091798 18.5205078,72.8652344 C18.2900379,72.6386707 17.8740264,72.4179698 17.2724609,72.203125 C16.6708954,71.9882802 16.2109391,71.7626965 15.8925781,71.5263672 C15.5742172,71.2900379 15.3359383,71.0205093 15.1777344,70.7177734 C15.0195305,70.4150375 14.9404297,70.0683613 14.9404297,69.6777344 C14.9404297,69.0019497 15.1660134,68.4453147 15.6171875,68.0078125 C16.0683616,67.5703103 16.659176,67.3515625 17.3896484,67.3515625 C17.8896509,67.3515625 18.334959,67.4638661 18.7255859,67.6884766 C19.1162129,67.9130871 19.4169911,68.2246074 19.6279297,68.6230469 C19.8388682,69.0214864 19.9443359,69.458982 19.9443359,69.9355469 L18.8662109,69.9355469 C18.8662109,69.4082005 18.7392591,69.0000014 18.4853516,68.7109375 C18.231444,68.4218736 17.8662133,68.2773438 17.3896484,68.2773438 C16.9560525,68.2773438 16.6201184,68.3984363 16.3818359,68.640625 C16.1435535,68.8828137 16.0244141,69.2226541 16.0244141,69.6601562 C16.0244141,70.019533 16.153319,70.3203113 16.4111328,70.5625 C16.6689466,70.8046887 17.0673801,71.0214834 17.6064453,71.2128906 C18.4462933,71.4902358 19.0468732,71.8320292 19.4082031,72.2382812 C19.7695331,72.6445333 19.9501953,73.175778 19.9501953,73.8320312 C19.9501953,74.523441 19.7255882,75.0771464 19.2763672,75.4931641 C18.8271462,75.9091818 18.2158242,76.1171875 17.4423828,76.1171875 C16.9462866,76.1171875 16.4882833,76.0087901 16.0683594,75.7919922 C15.6484354,75.5751942 15.3183606,75.2705098 15.078125,74.8779297 C14.8378894,74.4853496 14.7177734,74.0351588 14.7177734,73.5273438 L15.7958984,73.5273438 C15.7958984,74.0546901 15.9433579,74.4648423 16.2382812,74.7578125 C16.5332046,75.0507827 16.9345678,75.1972656 17.4423828,75.1972656 C17.9150414,75.1972656 18.2705066,75.0761731 18.5087891,74.8339844 C18.7470715,74.5917957 18.8662109,74.2617208 18.8662109,73.84375 Z M24.4443359,75.4433594 C24.1005842,75.8925804 23.5986361,76.1171875 22.9384766,76.1171875 C22.3642549,76.1171875 21.9306655,75.9189473 21.6376953,75.5224609 C21.3447251,75.1259746 21.1962891,74.5488319 21.1923828,73.7910156 L21.1923828,69.6601562 L22.2236328,69.6601562 L22.2236328,73.7148438 C22.2236328,74.7031299 22.5205048,75.1972656 23.1142578,75.1972656 C23.7431672,75.1972656 24.1767566,74.9160184 24.4150391,74.3535156 L24.4150391,69.6601562 L25.4521484,69.6601562 L25.4521484,76 L24.4677734,76 L24.4443359,75.4433594 Z M27.9892578,69.6601562 L28.0185547,70.3457031 C28.4209004,69.8105442 28.9345672,69.5429688 29.5595703,69.5429688 C30.6806697,69.5429688 31.2490234,70.2910081 31.2646484,71.7871094 L31.2646484,76 L30.2333984,76 L30.2333984,71.8339844 C30.2333984,71.3378881 30.1503915,70.9853526 29.984375,70.7763672 C29.8183585,70.5673818 29.5693376,70.4628906 29.2373047,70.4628906 C28.9794909,70.4628906 28.7480479,70.5488273 28.5429688,70.7207031 C28.3378896,70.892579 28.1728522,71.1171861 28.0478516,71.3945312 L28.0478516,76 L27.0107422,76 L27.0107422,69.6601562 L27.9892578,69.6601562 Z M33.8544922,70.3105469 C34.2490254,69.7988256 34.7529266,69.5429688 35.3662109,69.5429688 C36.4873103,69.5429688 37.055664,70.2910081 37.0712891,71.7871094 L37.0712891,76 L36.0400391,76 L36.0400391,71.8339844 C36.0400391,71.3378881 35.9570321,70.9853526 35.7910156,70.7763672 C35.6249992,70.5673818 35.3759782,70.4628906 35.0439453,70.4628906 C34.7861315,70.4628906 34.5546885,70.5488273 34.3496094,70.7207031 C34.1445302,70.892579 33.9794928,71.1171861 33.8544922,71.3945312 L33.8544922,76 L32.8173828,76 L32.8173828,67 L33.8544922,67 L33.8544922,70.3105469 Z M38.3955078,72.5371094 C38.3955078,71.6152298 38.6191384,70.8857449 39.0664062,70.3486328 C39.5136741,69.8115208 40.1044885,69.5429688 40.8388672,69.5429688 C41.5732459,69.5429688 42.1640603,69.8046849 42.6113281,70.328125 C43.058596,70.8515651 43.2880859,71.5644486 43.2998047,72.4667969 L43.2998047,73.1347656 C43.2998047,74.052739 43.0771507,74.7792942 42.6318359,75.3144531 C42.1865212,75.8496121 41.5927771,76.1171875 40.8505859,76.1171875 C40.1162073,76.1171875 39.527346,75.8574245 39.0839844,75.3378906 C38.6406228,74.8183568 38.4111329,74.1152388 38.3955078,73.2285156 L38.3955078,72.5371094 Z M39.4326172,73.1347656 C39.4326172,73.7871126 39.5605456,74.2998028 39.8164062,74.6728516 C40.0722669,75.0459003 40.41699,75.2324219 40.8505859,75.2324219 C41.764653,75.2324219 42.2353514,74.5722722 42.2626953,73.2519531 L42.2626953,72.5371094 C42.2626953,71.8886686 42.1337904,71.3759784 41.8759766,70.9990234 C41.6181628,70.6220684 41.2724631,70.4335938 40.8388672,70.4335938 C40.4130838,70.4335938 40.0722669,70.6220684 39.8164062,70.9990234 C39.5605456,71.3759784 39.4326172,71.8867155 39.4326172,72.53125 L39.4326172,73.1347656 Z M47.8701172,75.4433594 C47.5263655,75.8925804 47.0244174,76.1171875 46.3642578,76.1171875 C45.7900362,76.1171875 45.3564468,75.9189473 45.0634766,75.5224609 C44.7705063,75.1259746 44.6220703,74.5488319 44.6181641,73.7910156 L44.6181641,69.6601562 L45.6494141,69.6601562 L45.6494141,73.7148438 C45.6494141,74.7031299 45.9462861,75.1972656 46.5400391,75.1972656 C47.1689485,75.1972656 47.6025379,74.9160184 47.8408203,74.3535156 L47.8408203,69.6601562 L48.8779297,69.6601562 L48.8779297,76 L47.8935547,76 L47.8701172,75.4433594 Z M53.0556641,70.6328125 C52.9111321,70.6054686 52.7548837,70.5917969 52.5869141,70.5917969 C52.0556614,70.5917969 51.6845714,70.8828096 51.4736328,71.4648438 L51.4736328,76 L50.4365234,76 L50.4365234,69.6601562 L51.4443359,69.6601562 L51.4619141,70.3046875 C51.7392592,69.7968725 52.1318334,69.5429688 52.6396484,69.5429688 C52.8037118,69.5429688 52.9404291,69.5703122 53.0498047,69.625 L53.0556641,70.6328125 Z M57.1689453,74.3769531 C57.1689453,74.1542958 57.0849618,73.9628914 56.9169922,73.8027344 C56.7490226,73.6425773 56.4248071,73.4550792 55.9443359,73.2402344 C55.3857394,73.0097645 54.9921886,72.8125008 54.7636719,72.6484375 C54.5351551,72.4843742 54.3642584,72.2978526 54.2509766,72.0888672 C54.1376947,71.8798818 54.0810547,71.6308608 54.0810547,71.3417969 C54.0810547,70.8261693 54.2695294,70.3974626 54.6464844,70.0556641 C55.0234394,69.7138655 55.5048799,69.5429688 56.0908203,69.5429688 C56.7080109,69.5429688 57.2040997,69.7226545 57.5791016,70.0820312 C57.9541034,70.441408 58.1416016,70.9023409 58.1416016,71.4648438 L57.1103516,71.4648438 C57.1103516,71.1796861 57.0146494,70.9365244 56.8232422,70.7353516 C56.631835,70.5341787 56.3876968,70.4335938 56.0908203,70.4335938 C55.7861313,70.4335938 55.5468759,70.5126945 55.3730469,70.6708984 C55.1992179,70.8291024 55.1123047,71.0410143 55.1123047,71.3066406 C55.1123047,71.5175792 55.1757806,71.6874994 55.3027344,71.8164062 C55.4296881,71.9453131 55.7353491,72.1152333 56.2197266,72.3261719 C56.9892617,72.6269546 57.5126939,72.920897 57.7900391,73.2080078 C58.0673842,73.4951186 58.2060547,73.8593728 58.2060547,74.3007812 C58.2060547,74.8515653 58.0166035,75.2919905 57.6376953,75.6220703 C57.2587872,75.9521501 56.7509797,76.1171875 56.1142578,76.1171875 C55.4540983,76.1171875 54.9189474,75.9277363 54.5087891,75.5488281 C54.0986308,75.16992 53.8935547,74.689456 53.8935547,74.1074219 L54.9365234,74.1074219 C54.9482422,74.4589861 55.055663,74.734374 55.2587891,74.9335938 C55.4619151,75.1328135 55.7470685,75.2324219 56.1142578,75.2324219 C56.4580095,75.2324219 56.7197257,75.1552742 56.8994141,75.0009766 C57.0791025,74.8466789 57.1689453,74.6386732 57.1689453,74.3769531 Z" id="Sunhours" fill="#FFFFFF"></path>
                        <path d="M50,46 L56.4315244,51.8595432" id="Line" stroke="#FFFFFF" stroke-width="1.6" stroke-linecap="square"></path>
                        <polygon id="Rectangle-5" fill="#0027B6" opacity="0.800000012" points="5.6 0 36 0 36 29.6 0.517386247 52.7679491"></polygon>
                    </g>
                    <g id="sun" transform="translate(21.600000, 15.200000)" fill="#FFFFFF">
                        <g id="sun(1)">
                            <path d="M14.6464865,7.30962162 C10.6008649,7.30962162 7.30962162,10.6015135 7.30962162,14.6471351 C7.30962162,18.6927568 10.6008649,21.9846486 14.6464865,21.9846486 C18.6914595,21.9846486 21.9833514,18.6934054 21.9833514,14.6471351 C21.9833514,10.6008649 18.6914595,7.30962162 14.6464865,7.30962162 Z" id="Shape" fill-rule="nonzero"></path>
                            <g id="Group" fill-rule="nonzero">
                                <path d="M14.6464865,5.15286486 C13.8557838,5.15286486 13.2149189,4.512 13.2149189,3.72194595 L13.2149189,1.43156757 C13.2149189,0.640864865 13.8557838,0 14.6464865,0 C15.4371892,0 16.0780541,0.640864865 16.0780541,1.43156757 L16.0780541,3.72194595 C16.0780541,4.512 15.4365405,5.15286486 14.6464865,5.15286486 Z" id="Shape"></path>
                                <path d="M14.6464865,24.1394595 C13.8557838,24.1394595 13.2149189,24.7803243 13.2149189,25.571027 L13.2149189,27.8607568 C13.2149189,28.6521081 13.8557838,29.292973 14.6464865,29.292973 C15.4371892,29.292973 16.0780541,28.6521081 16.0780541,27.8607568 L16.0780541,25.571027 C16.0780541,24.7803243 15.4365405,24.1394595 14.6464865,24.1394595 Z" id="Shape"></path>
                                <path d="M21.3587027,7.93362162 C20.8002162,7.37448649 20.8002162,6.46832432 21.3587027,5.90918919 L22.9783784,4.28951351 C23.5368649,3.73102703 24.4436757,3.73102703 25.0028108,4.28951351 C25.5619459,4.84864865 25.5619459,5.75545946 25.0028108,6.31394595 L23.3831351,7.93362162 C22.8246486,8.49275676 21.9184865,8.49275676 21.3587027,7.93362162 Z" id="Shape"></path>
                                <path d="M7.93362162,21.36 C7.37448649,20.8002162 6.46832432,20.8002162 5.90918919,21.36 L4.28951351,22.979027 C3.73102703,23.5375135 3.73037838,24.444973 4.28951351,25.0034595 C4.84864865,25.5619459 5.75545946,25.5619459 6.31394595,25.0034595 L7.93362162,23.3831351 C8.49275676,22.8246486 8.49275676,21.9178378 7.93362162,21.36 Z" id="Shape"></path>
                                <path d="M24.1394595,14.6464865 C24.1394595,13.8557838 24.7803243,13.2149189 25.571027,13.2149189 L27.8614054,13.2149189 C28.6521081,13.2149189 29.292973,13.8557838 29.292973,14.6464865 C29.292973,15.4371892 28.6521081,16.0774054 27.8614054,16.0774054 L25.571027,16.0774054 C24.7803243,16.0774054 24.1394595,15.4371892 24.1394595,14.6464865 Z" id="Shape"></path>
                                <path d="M5.15286486,14.6464865 C5.15286486,13.8557838 4.512,13.2149189 3.7212973,13.2149189 L1.43156757,13.2149189 C0.640864865,13.2149189 0,13.8557838 0,14.6464865 C0,15.4371892 0.640864865,16.0774054 1.43156757,16.0774054 L3.72194595,16.0774054 C4.512,16.0774054 5.15286486,15.4371892 5.15286486,14.6464865 Z" id="Shape"></path>
                                <path d="M21.3587027,21.36 C21.9178378,20.8015135 22.8246486,20.8015135 23.3831351,21.36 L25.0028108,22.9796757 C25.5619459,23.5375135 25.5619459,24.444973 25.0028108,25.0034595 C24.4436757,25.5619459 23.5375135,25.5619459 22.9783784,25.0034595 L21.3587027,23.3837838 C20.7995676,22.8246486 20.7995676,21.9184865 21.3587027,21.36 Z" id="Shape"></path>
                                <path d="M7.93362162,7.93362162 C8.49275676,7.37448649 8.49275676,6.46832432 7.93362162,5.90918919 L6.31394595,4.29016216 C5.75481081,3.73102703 4.84864865,3.73102703 4.28951351,4.29016216 C3.73037838,4.84864865 3.73037838,5.75545946 4.28951351,6.31394595 L5.90918919,7.93362162 C6.46832432,8.49340541 7.37448649,8.49340541 7.93362162,7.93362162 Z" id="Shape"></path>
                            </g>
                        </g>
                    </g>
                </g>
                <g id="wellbeeing" transform="translate(197.800000, 0.000000)">
                    <g id="ring" transform="translate(-0.000000, 0.000000)">
                        <g transform="translate(3.000000, 2.400000)" fill="#FFFFFF" id="Combined-Shape">
                            <path d="M27.6,55.2 C12.3569409,55.2 0,42.8430591 0,27.6 C0,12.3569409 12.3569409,0 27.6,0 C42.8430591,0 55.2,12.3569409 55.2,27.6 C55.2,42.8430591 42.8430591,55.2 27.6,55.2 Z M27.6,52 C41.0757479,52 52,41.0757479 52,27.6 C52,14.1242521 41.0757479,3.2 27.6,3.2 C14.1242521,3.2 3.2,14.1242521 3.2,27.6 C3.2,41.0757479 14.1242521,52 27.6,52 Z"></path>
                        </g>
                        <path d="M22.328125,73.2929688 C22.2812498,74.2070358 22.0244164,74.9062476 21.5576172,75.390625 C21.090818,75.8750024 20.4316449,76.1171875 19.5800781,76.1171875 C18.7246051,76.1171875 18.0449244,75.7919954 17.5410156,75.1416016 C17.0371069,74.4912077 16.7851562,73.6093806 16.7851562,72.4960938 L16.7851562,70.9492188 C16.7851562,69.8398382 17.0439427,68.9628938 17.5615234,68.3183594 C18.0791042,67.6738249 18.7851518,67.3515625 19.6796875,67.3515625 C20.5039104,67.3515625 21.1415993,67.5986303 21.5927734,68.0927734 C22.0439476,68.5869165 22.2890623,69.2929642 22.328125,70.2109375 L21.2441406,70.2109375 C21.1972654,69.5156215 21.0507825,69.0195327 20.8046875,68.7226562 C20.5585925,68.4257798 20.1835963,68.2773438 19.6796875,68.2773438 C19.0976533,68.2773438 18.6503922,68.5048805 18.3378906,68.9599609 C18.0253891,69.4150413 17.8691406,70.0820269 17.8691406,70.9609375 L17.8691406,72.5253906 C17.8691406,73.3886762 18.014647,74.0507789 18.3056641,74.5117188 C18.5966811,74.9726586 19.0214816,75.203125 19.5800781,75.203125 C20.1386747,75.203125 20.5410144,75.0644545 20.7871094,74.7871094 C21.0332044,74.5097642 21.1855466,74.0117223 21.2441406,73.2929688 L22.328125,73.2929688 Z M24.671875,70.3105469 C25.0664082,69.7988256 25.5703094,69.5429688 26.1835937,69.5429688 C27.3046931,69.5429688 27.8730468,70.2910081 27.8886719,71.7871094 L27.8886719,76 L26.8574219,76 L26.8574219,71.8339844 C26.8574219,71.3378881 26.7744149,70.9853526 26.6083984,70.7763672 C26.442382,70.5673818 26.193361,70.4628906 25.8613281,70.4628906 C25.6035143,70.4628906 25.3720713,70.5488273 25.1669922,70.7207031 C24.961913,70.892579 24.7968756,71.1171861 24.671875,71.3945312 L24.671875,76 L23.6347656,76 L23.6347656,67 L24.671875,67 L24.671875,70.3105469 Z M31.6972656,76.1171875 C30.9081992,76.1171875 30.3027365,75.8818383 29.8808594,75.4111328 C29.4589823,74.9404273 29.2441407,74.2500046 29.2363281,73.3398438 L29.2363281,72.5722656 C29.2363281,71.6269484 29.4423808,70.8857449 29.8544922,70.3486328 C30.2666036,69.8115208 30.8417932,69.5429688 31.5800781,69.5429688 C32.3222693,69.5429688 32.8769513,69.7792945 33.2441406,70.2519531 C33.61133,70.7246117 33.7988281,71.4609325 33.8066406,72.4609375 L33.8066406,73.140625 L30.2675781,73.140625 L30.2675781,73.2871094 C30.2675781,73.9668003 30.3955065,74.460936 30.6513672,74.7695312 C30.9072278,75.0781265 31.2753882,75.2324219 31.7558594,75.2324219 C32.0605484,75.2324219 32.3291004,75.1748053 32.5615234,75.0595703 C32.7939465,74.9443354 33.0117177,74.76172 33.2148437,74.5117188 L33.7539062,75.1679688 C33.3046853,75.8007844 32.6191452,76.1171875 31.6972656,76.1171875 Z M31.5800781,70.4335938 C31.1503885,70.4335938 30.8320323,70.5810532 30.625,70.8759766 C30.4179677,71.1708999 30.3007814,71.6289031 30.2734375,72.25 L32.7695312,72.25 L32.7695312,72.109375 C32.7421874,71.5078095 32.63379,71.0781263 32.4443359,70.8203125 C32.2548819,70.5624987 31.9667988,70.4335938 31.5800781,70.4335938 Z M38.3125,76 C38.2499997,75.8632806 38.2050783,75.6328141 38.1777344,75.3085938 C37.810545,75.8476589 37.3417997,76.1171875 36.7714844,76.1171875 C36.1972628,76.1171875 35.749025,75.9560563 35.4267578,75.6337891 C35.1044906,75.3115218 34.9433594,74.8574248 34.9433594,74.2714844 C34.9433594,73.6269499 35.1621072,73.1152363 35.5996094,72.7363281 C36.0371116,72.35742 36.6367149,72.1640625 37.3984375,72.15625 L38.1601562,72.15625 L38.1601562,71.4824219 C38.1601562,71.1035137 38.0761727,70.8339852 37.9082031,70.6738281 C37.7402335,70.5136711 37.4843767,70.4335938 37.140625,70.4335938 C36.8281234,70.4335938 36.5742197,70.5263663 36.3789062,70.7119141 C36.1835928,70.8974619 36.0859375,71.1328111 36.0859375,71.4179688 L35.0488281,71.4179688 C35.0488281,71.0937484 35.1445303,70.7841812 35.3359375,70.4892578 C35.5273447,70.1943345 35.7851546,69.9628915 36.109375,69.7949219 C36.4335954,69.6269523 36.7949199,69.5429688 37.1933594,69.5429688 C37.8418001,69.5429688 38.3349592,69.7041 38.6728516,70.0263672 C39.0107439,70.3486344 39.1835937,70.8183563 39.1914062,71.4355469 L39.1914062,74.6347656 C39.1953125,75.1230493 39.2617181,75.5468732 39.390625,75.90625 L39.390625,76 L38.3125,76 Z M36.9296875,75.1738281 C37.183595,75.1738281 37.4257801,75.1035163 37.65625,74.9628906 C37.8867199,74.8222649 38.054687,74.6464854 38.1601562,74.4355469 L38.1601562,72.9238281 L37.5742187,72.9238281 C37.0820288,72.9316407 36.6933608,73.0419911 36.4082031,73.2548828 C36.1230454,73.4677745 35.9804687,73.7656231 35.9804687,74.1484375 C35.9804687,74.5078143 36.0527337,74.7685539 36.1972656,74.9306641 C36.3417976,75.0927742 36.5859358,75.1738281 36.9296875,75.1738281 Z M45.3789062,73.1347656 C45.3789062,74.1386769 45.198244,74.8867163 44.8369141,75.3789062 C44.4755841,75.8710962 43.9648471,76.1171875 43.3046875,76.1171875 C42.6679656,76.1171875 42.1777361,75.8769555 41.8339844,75.3964844 L41.8339844,78.4375 L40.8027344,78.4375 L40.8027344,69.6601562 L41.7402344,69.6601562 L41.7929687,70.3632812 C42.1406267,69.8164035 42.6386686,69.5429688 43.2871094,69.5429688 C43.9824254,69.5429688 44.5019514,69.7851538 44.8457031,70.2695312 C45.1894548,70.7539087 45.3671874,71.4785108 45.3789062,72.4433594 L45.3789062,73.1347656 Z M44.3476562,72.5429688 C44.3476562,71.8320277 44.2382823,71.3076189 44.0195312,70.9697266 C43.8007802,70.6318342 43.4492212,70.4628906 42.9648437,70.4628906 C42.4687475,70.4628906 42.0917982,70.710935 41.8339844,71.2070312 L41.8339844,74.5058594 C42.0878919,74.9902368 42.4687475,75.2324219 42.9765625,75.2324219 C43.4453148,75.2324219 43.790038,75.0634783 44.0107422,74.7255859 C44.2314464,74.3876936 44.34375,73.8710972 44.3476562,73.1757812 L44.3476562,72.5429688 Z M9.39941406,81.46875 L9.39941406,87.5332031 C9.39160152,88.3418009 9.15722887,88.9746071 8.69628906,89.4316406 C8.23534926,89.8886742 7.59277756,90.1171875 6.76855469,90.1171875 C5.92480047,90.1171875 5.28027566,89.8935569 4.83496094,89.4462891 C4.38964621,88.9990212 4.16308598,88.3613323 4.15527344,87.5332031 L4.15527344,81.46875 L5.22167969,81.46875 L5.22167969,87.4921875 C5.22167969,88.0664091 5.34374878,88.4951158 5.58789062,88.7783203 C5.83203247,89.0615249 6.22558322,89.203125 6.76855469,89.203125 C7.31543242,89.203125 7.71093628,89.0615249 7.95507812,88.7783203 C8.19921997,88.4951158 8.32128906,88.0664091 8.32128906,87.4921875 L8.32128906,81.46875 L9.39941406,81.46875 Z M11.8837891,83.6601562 L11.9130859,84.3457031 C12.3154317,83.8105442 12.8290984,83.5429688 13.4541016,83.5429688 C14.5752009,83.5429688 15.1435546,84.2910081 15.1591797,85.7871094 L15.1591797,90 L14.1279297,90 L14.1279297,85.8339844 C14.1279297,85.3378881 14.0449227,84.9853526 13.8789062,84.7763672 C13.7128898,84.5673818 13.4638688,84.4628906 13.1318359,84.4628906 C12.8740221,84.4628906 12.6425792,84.5488273 12.4375,84.7207031 C12.2324208,84.892579 12.0673834,85.1171861 11.9423828,85.3945312 L11.9423828,90 L10.9052734,90 L10.9052734,83.6601562 L11.8837891,83.6601562 Z M17.8310547,90 L16.7939453,90 L16.7939453,83.6601562 L17.8310547,83.6601562 L17.8310547,90 Z M17.9130859,81.9785156 C17.9130859,82.1542978 17.8642583,82.3007807 17.7666016,82.4179688 C17.6689448,82.5351568 17.5205088,82.59375 17.3212891,82.59375 C17.1259756,82.59375 16.9794927,82.5351568 16.8818359,82.4179688 C16.7841792,82.3007807 16.7353516,82.1542978 16.7353516,81.9785156 C16.7353516,81.8027335 16.7841792,81.6542975 16.8818359,81.5332031 C16.9794927,81.4121088 17.1259756,81.3515625 17.3212891,81.3515625 C17.5166025,81.3515625 17.664062,81.4130853 17.7636719,81.5361328 C17.8632817,81.6591803 17.9130859,81.8066398 17.9130859,81.9785156 Z M21.2587891,88.4238281 L22.4599609,83.6601562 L23.5146484,83.6601562 L21.6337891,90 L20.8603516,90 L18.9560547,83.6601562 L20.0107422,83.6601562 L21.2587891,88.4238281 Z M26.7841797,90.1171875 C25.9951132,90.1171875 25.3896505,89.8818383 24.9677734,89.4111328 C24.5458963,88.9404273 24.3310547,88.2500046 24.3232422,87.3398438 L24.3232422,86.5722656 C24.3232422,85.6269484 24.5292948,84.8857449 24.9414062,84.3486328 C25.3535177,83.8115208 25.9287072,83.5429688 26.6669922,83.5429688 C27.4091834,83.5429688 27.9638654,83.7792945 28.3310547,84.2519531 C28.698244,84.7246117 28.8857421,85.4609325 28.8935547,86.4609375 L28.8935547,87.140625 L25.3544922,87.140625 L25.3544922,87.2871094 C25.3544922,87.9668003 25.4824206,88.460936 25.7382812,88.7695312 C25.9941419,89.0781265 26.3623023,89.2324219 26.8427734,89.2324219 C27.1474625,89.2324219 27.4160145,89.1748053 27.6484375,89.0595703 C27.8808605,88.9443354 28.0986318,88.76172 28.3017578,88.5117188 L28.8408203,89.1679688 C28.3915993,89.8007844 27.7060593,90.1171875 26.7841797,90.1171875 Z M26.6669922,84.4335938 C26.2373025,84.4335938 25.9189463,84.5810532 25.7119141,84.8759766 C25.5048818,85.1708999 25.3876954,85.6289031 25.3603516,86.25 L27.8564453,86.25 L27.8564453,86.109375 C27.8291014,85.5078095 27.7207041,85.0781263 27.53125,84.8203125 C27.3417959,84.5624987 27.0537129,84.4335938 26.6669922,84.4335938 Z M32.7548828,84.6328125 C32.6103508,84.6054686 32.4541024,84.5917969 32.2861328,84.5917969 C31.7548802,84.5917969 31.3837901,84.8828096 31.1728516,85.4648438 L31.1728516,90 L30.1357422,90 L30.1357422,83.6601562 L31.1435547,83.6601562 L31.1611328,84.3046875 C31.4384779,83.7968725 31.8310521,83.5429688 32.3388672,83.5429688 C32.5029305,83.5429688 32.6396479,83.5703122 32.7490234,83.625 L32.7548828,84.6328125 Z M36.8681641,88.3769531 C36.8681641,88.1542958 36.7841805,87.9628914 36.6162109,87.8027344 C36.4482413,87.6425773 36.1240258,87.4550792 35.6435547,87.2402344 C35.0849581,87.0097645 34.6914074,86.8125008 34.4628906,86.6484375 C34.2343739,86.4843742 34.0634771,86.2978526 33.9501953,86.0888672 C33.8369135,85.8798818 33.7802734,85.6308608 33.7802734,85.3417969 C33.7802734,84.8261693 33.9687481,84.3974626 34.3457031,84.0556641 C34.7226581,83.7138655 35.2040986,83.5429688 35.7900391,83.5429688 C36.4072296,83.5429688 36.9033184,83.7226545 37.2783203,84.0820312 C37.6533222,84.441408 37.8408203,84.9023409 37.8408203,85.4648438 L36.8095703,85.4648438 C36.8095703,85.1796861 36.7138681,84.9365244 36.5224609,84.7353516 C36.3310537,84.5341787 36.0869155,84.4335938 35.7900391,84.4335938 C35.48535,84.4335938 35.2460946,84.5126945 35.0722656,84.6708984 C34.8984366,84.8291024 34.8115234,85.0410143 34.8115234,85.3066406 C34.8115234,85.5175792 34.8749994,85.6874994 35.0019531,85.8164062 C35.1289069,85.9453131 35.4345679,86.1152333 35.9189453,86.3261719 C36.6884804,86.6269546 37.2119127,86.920897 37.4892578,87.2080078 C37.7666029,87.4951186 37.9052734,87.8593728 37.9052734,88.3007812 C37.9052734,88.8515653 37.7158222,89.2919905 37.3369141,89.6220703 C36.9580059,89.9521501 36.4501985,90.1171875 35.8134766,90.1171875 C35.153317,90.1171875 34.6181661,89.9277363 34.2080078,89.5488281 C33.7978495,89.16992 33.5927734,88.689456 33.5927734,88.1074219 L34.6357422,88.1074219 C34.647461,88.4589861 34.7548818,88.734374 34.9580078,88.9335938 C35.1611338,89.1328135 35.4462872,89.2324219 35.8134766,89.2324219 C36.1572283,89.2324219 36.4189444,89.1552742 36.5986328,89.0009766 C36.7783212,88.8466789 36.8681641,88.6386732 36.8681641,88.3769531 Z M40.3720703,90 L39.3349609,90 L39.3349609,83.6601562 L40.3720703,83.6601562 L40.3720703,90 Z M40.4541016,81.9785156 C40.4541016,82.1542978 40.4052739,82.3007807 40.3076172,82.4179688 C40.2099604,82.5351568 40.0615244,82.59375 39.8623047,82.59375 C39.6669912,82.59375 39.5205083,82.5351568 39.4228516,82.4179688 C39.3251948,82.3007807 39.2763672,82.1542978 39.2763672,81.9785156 C39.2763672,81.8027335 39.3251948,81.6542975 39.4228516,81.5332031 C39.5205083,81.4121088 39.6669912,81.3515625 39.8623047,81.3515625 C40.0576182,81.3515625 40.2050776,81.4130853 40.3046875,81.5361328 C40.4042974,81.6591803 40.4541016,81.8066398 40.4541016,81.9785156 Z M43.3603516,82.125 L43.3603516,83.6601562 L44.3154297,83.6601562 L44.3154297,84.4980469 L43.3603516,84.4980469 L43.3603516,88.4296875 C43.3603516,88.6796887 43.4013668,88.86914 43.4833984,88.9980469 C43.5654301,89.1269538 43.7060537,89.1914062 43.9052734,89.1914062 C44.0419929,89.1914062 44.1806634,89.167969 44.3212891,89.1210938 L44.3095703,90 C44.0751941,90.0781254 43.8349622,90.1171875 43.5888672,90.1171875 C43.1787089,90.1171875 42.866212,89.9707046 42.6513672,89.6777344 C42.4365224,89.3847642 42.3291016,88.9707058 42.3291016,88.4355469 L42.3291016,84.4980469 L41.3623047,84.4980469 L41.3623047,83.6601562 L42.3291016,83.6601562 L42.3291016,82.125 L43.3603516,82.125 Z M46.6650391,90 L45.6279297,90 L45.6279297,83.6601562 L46.6650391,83.6601562 L46.6650391,90 Z M46.7470703,81.9785156 C46.7470703,82.1542978 46.6982427,82.3007807 46.6005859,82.4179688 C46.5029292,82.5351568 46.3544932,82.59375 46.1552734,82.59375 C45.95996,82.59375 45.8134771,82.5351568 45.7158203,82.4179688 C45.6181636,82.3007807 45.5693359,82.1542978 45.5693359,81.9785156 C45.5693359,81.8027335 45.6181636,81.6542975 45.7158203,81.5332031 C45.8134771,81.4121088 45.95996,81.3515625 46.1552734,81.3515625 C46.3505869,81.3515625 46.4980464,81.4130853 46.5976562,81.5361328 C46.6972661,81.6591803 46.7470703,81.8066398 46.7470703,81.9785156 Z M50.5615234,90.1171875 C49.772457,90.1171875 49.1669943,89.8818383 48.7451172,89.4111328 C48.3232401,88.9404273 48.1083985,88.2500046 48.1005859,87.3398438 L48.1005859,86.5722656 C48.1005859,85.6269484 48.3066386,84.8857449 48.71875,84.3486328 C49.1308614,83.8115208 49.706051,83.5429688 50.4443359,83.5429688 C51.1865271,83.5429688 51.7412091,83.7792945 52.1083984,84.2519531 C52.4755878,84.7246117 52.6630859,85.4609325 52.6708984,86.4609375 L52.6708984,87.140625 L49.1318359,87.140625 L49.1318359,87.2871094 C49.1318359,87.9668003 49.2597643,88.460936 49.515625,88.7695312 C49.7714857,89.0781265 50.139646,89.2324219 50.6201172,89.2324219 C50.9248062,89.2324219 51.1933582,89.1748053 51.4257812,89.0595703 C51.6582043,88.9443354 51.8759755,88.76172 52.0791016,88.5117188 L52.6181641,89.1679688 C52.1689431,89.8007844 51.483403,90.1171875 50.5615234,90.1171875 Z M50.4443359,84.4335938 C50.0146463,84.4335938 49.6962901,84.5810532 49.4892578,84.8759766 C49.2822255,85.1708999 49.1650392,85.6289031 49.1376953,86.25 L51.6337891,86.25 L51.6337891,86.109375 C51.6064452,85.5078095 51.4980478,85.0781263 51.3085937,84.8203125 C51.1191397,84.5624987 50.8310566,84.4335938 50.4443359,84.4335938 Z M56.9951172,88.3769531 C56.9951172,88.1542958 56.9111337,87.9628914 56.7431641,87.8027344 C56.5751945,87.6425773 56.250979,87.4550792 55.7705078,87.2402344 C55.2119113,87.0097645 54.8183605,86.8125008 54.5898437,86.6484375 C54.361327,86.4843742 54.1904303,86.2978526 54.0771484,86.0888672 C53.9638666,85.8798818 53.9072266,85.6308608 53.9072266,85.3417969 C53.9072266,84.8261693 54.0957012,84.3974626 54.4726562,84.0556641 C54.8496113,83.7138655 55.3310518,83.5429688 55.9169922,83.5429688 C56.5341828,83.5429688 57.0302716,83.7226545 57.4052734,84.0820312 C57.7802753,84.441408 57.9677734,84.9023409 57.9677734,85.4648438 L56.9365234,85.4648438 C56.9365234,85.1796861 56.8408213,84.9365244 56.6494141,84.7353516 C56.4580069,84.5341787 56.2138687,84.4335938 55.9169922,84.4335938 C55.6123032,84.4335938 55.3730477,84.5126945 55.1992187,84.6708984 C55.0253898,84.8291024 54.9384766,85.0410143 54.9384766,85.3066406 C54.9384766,85.5175792 55.0019525,85.6874994 55.1289062,85.8164062 C55.25586,85.9453131 55.561521,86.1152333 56.0458984,86.3261719 C56.8154335,86.6269546 57.3388658,86.920897 57.6162109,87.2080078 C57.8935561,87.4951186 58.0322266,87.8593728 58.0322266,88.3007812 C58.0322266,88.8515653 57.8427753,89.2919905 57.4638672,89.6220703 C57.084959,89.9521501 56.5771516,90.1171875 55.9404297,90.1171875 C55.2802701,90.1171875 54.7451192,89.9277363 54.3349609,89.5488281 C53.9248026,89.16992 53.7197266,88.689456 53.7197266,88.1074219 L54.7626953,88.1074219 C54.7744141,88.4589861 54.8818349,88.734374 55.0849609,88.9335938 C55.288087,89.1328135 55.5732404,89.2324219 55.9404297,89.2324219 C56.2841814,89.2324219 56.5458975,89.1552742 56.7255859,89.0009766 C56.9052743,88.8466789 56.9951172,88.6386732 56.9951172,88.3769531 Z" id="Cheap-Universities" fill="#FFFFFF"></path>
                        <path d="M39.4,50 L43.4,57.255519" id="Line" stroke="#FFFFFF" stroke-width="1.6" stroke-linecap="square"></path>
                        <polygon id="Rectangle-5" fill="#0027B6" opacity="0.800000012" points="0.6 0 31 0 31 29.6 5.12468889 14.8"></polygon>
                    </g>
                    <g id="education" transform="translate(17.400000, 19.200000)" fill="#FFFFFF">
                        <g id="college-graduation">
                            <path d="M14.6768451,16.1615023 C14.2138332,16.4540519 13.6208702,16.6152061 13.0071724,16.6152061 C12.3934746,16.6152061 11.8005116,16.4541191 11.3374997,16.1615023 L3.77829718,11.3851847 C3.77829718,11.3851847 3.09600502,10.9543206 3.09600502,11.9303817 C3.09600502,13.0387786 3.09600502,16.3639695 3.09600502,16.3639695 C3.09600502,16.4083053 3.09600502,16.630858 3.09600502,16.6998473 C3.09600502,19.2123481 7.53331661,21.9209344 13.0069768,21.9209344 C18.480637,21.9209344 22.9179486,19.2124153 22.9179486,16.6998473 C22.9179486,16.630858 22.9179486,16.4083053 22.9179486,16.3639695 C22.9179486,16.3639695 22.9179486,12.8371176 22.9179486,11.6614779 C22.9179486,10.8780092 22.4328978,11.2608427 22.4328978,11.2608427 L14.6768451,16.1615023 Z" id="Shape" fill-rule="nonzero"></path>
                            <path d="M25.5787185,7.58593588 C26.1595536,7.21895573 26.1595536,6.61840611 25.5787185,6.25135878 L14.0632125,0.318748092 C13.4823774,-0.0482320611 12.5319022,-0.0482320611 11.9510671,0.318748092 L0.435626332,6.25135878 C-0.145208777,6.61833893 -0.145208777,7.21888855 0.435626332,7.58593588 L11.9510671,14.862058 C12.5319022,15.2290382 13.4823774,15.2290382 14.0632125,14.862058" id="Shape" fill-rule="nonzero"></path>
                            <path d="M25.1024702,18.3708397 C25.1024702,16.361887 25.1024702,10.3349618 25.1024702,10.3349618 C25.1024702,10.3349618 25.1078821,9.95434504 24.8886671,10.0800305 C24.7128125,10.1808611 24.2817505,10.4284031 24.1298909,10.5645008 C23.954558,10.7214901 23.9940715,11.0738931 23.9940715,11.0738931 C23.9940715,11.0738931 23.9940715,16.5466198 23.9940715,18.3708397 C23.9940715,18.4744244 23.9076765,18.5238656 23.8664677,18.548855 C23.4683987,18.7899481 23.2007373,19.2349863 23.2007373,19.7451847 C23.2007373,20.5119267 23.8040025,21.1335023 24.5483034,21.1335023 C25.2925392,21.1335023 25.8958044,20.5119267 25.8958044,19.7451847 C25.8958044,19.2330382 25.6261868,18.7865893 25.2255749,18.5461008 C25.1857354,18.5221863 25.1024702,18.4743573 25.1024702,18.3708397 Z" id="Shape" fill-rule="nonzero"></path>
                        </g>
                    </g>
                </g>
            </g>
        </g>
    </g>
</svg>