<?xml version="1.0" encoding="utf-8"?>
<!-- Generator: Adobe Illustrator 22.0.1, SVG Export Plug-In . SVG Version: 6.00 Build 0)  -->
<svg version="1.1" id="Ebene_1" xmlns="http://www.w3.org/2000/svg" xmlns:xlink="http://www.w3.org/1999/xlink" x="0px" y="0px"
	 viewBox="0 0 207.6 204.6" style="enable-background:new 0 0 207.6 204.6;" xml:space="preserve">
<style type="text/css">
	.st0{clip-path:url(#SVGID_2_);}
	.st1{clip-path:url(#SVGID_4_);fill:#FFD300;}
	.st2{clip-path:url(#SVGID_6_);}
	.st3{clip-path:url(#SVGID_8_);fill:#FFD300;}
	.st4{clip-path:url(#SVGID_10_);}
	.st5{clip-path:url(#SVGID_12_);fill:#FFD300;}
	.st6{clip-path:url(#SVGID_14_);}
	.st7{clip-path:url(#SVGID_16_);fill:#FFD300;}
	.st8{clip-path:url(#SVGID_18_);}
	.st9{clip-path:url(#SVGID_20_);fill:#FFD300;}
	.st10{clip-path:url(#SVGID_22_);}
	.st11{clip-path:url(#SVGID_24_);fill:#FFD300;}
	.st12{clip-path:url(#SVGID_26_);}
	.st13{clip-path:url(#SVGID_28_);fill:#FFD300;}
	.st14{clip-path:url(#SVGID_30_);}
	.st15{clip-path:url(#SVGID_32_);fill:#FFD300;}
	.st16{clip-path:url(#SVGID_34_);}
	.st17{clip-path:url(#SVGID_36_);fill:#FFD300;}
	.st18{clip-path:url(#SVGID_38_);}
	.st19{clip-path:url(#SVGID_40_);fill:#FFD300;}
	.st20{clip-path:url(#SVGID_42_);}
	.st21{clip-path:url(#SVGID_44_);fill:#FFD300;}
	.st22{clip-path:url(#SVGID_46_);}
	.st23{clip-path:url(#SVGID_48_);fill:#FFD300;}
	.st25{fill:#FFFFFF;}
	.st26{font-family:'Roboto Condensed';}
	.st27{font-size:30px;}
</style>
<g>
	<defs>
		<polygon id="SVGID_1_" points="30.4,45.6 33.6,55.4 44.1,55.4 35.6,61.6 38.9,71.4 30.4,65.3 21.9,71.4 25.1,61.6 16.7,55.4
			27.2,55.4 		"/>
	</defs>
	<clipPath id="SVGID_2_">
		<use xlink:href="#SVGID_1_"  style="overflow:visible;"/>
	</clipPath>
	<g class="st0">
		<defs>
			<rect id="SVGID_3_" x="3.8" y="3" width="199.5" height="197.7"/>
		</defs>
		<clipPath id="SVGID_4_">
			<use xlink:href="#SVGID_3_"  style="overflow:visible;"/>
		</clipPath>
		<rect x="11.7" y="40.6" class="st1" width="37.5" height="35.9"/>
	</g>
</g>
<g>
	<defs>
		<polygon id="SVGID_5_" points="60.7,15 63.9,24.9 74.4,24.9 66,31 69.2,40.9 60.7,34.8 52.2,40.9 55.5,31 47,24.9 57.5,24.9 		"/>
	</defs>
	<clipPath id="SVGID_6_">
		<use xlink:href="#SVGID_5_"  style="overflow:visible;"/>
	</clipPath>
	<g class="st2">
		<defs>
			<rect id="SVGID_7_" x="3.8" y="3" width="199.5" height="197.7"/>
		</defs>
		<clipPath id="SVGID_8_">
			<use xlink:href="#SVGID_7_"  style="overflow:visible;"/>
		</clipPath>
		<rect x="42" y="10" class="st3" width="37.5" height="35.8"/>
	</g>
</g>
<g>
	<defs>
		<polygon id="SVGID_9_" points="103.9,3.5 107.1,13.4 117.6,13.4 109.1,19.5 112.4,29.4 103.9,23.2 95.4,29.4 98.6,19.5 90.2,13.4
			100.7,13.4 		"/>
	</defs>
	<clipPath id="SVGID_10_">
		<use xlink:href="#SVGID_9_"  style="overflow:visible;"/>
	</clipPath>
	<g class="st4">
		<defs>
			<rect id="SVGID_11_" x="3.8" y="3" width="199.5" height="197.7"/>
		</defs>
		<clipPath id="SVGID_12_">
			<use xlink:href="#SVGID_11_"  style="overflow:visible;"/>
		</clipPath>
		<rect x="85.2" y="-1.5" class="st5" width="37.5" height="35.9"/>
	</g>
</g>
<g>
	<defs>
		<polygon id="SVGID_13_" points="146.6,15.1 149.9,24.9 160.3,24.9 151.8,31 155.1,40.9 146.6,34.8 138.1,40.9 141.4,31
			132.9,24.9 143.4,24.9 		"/>
	</defs>
	<clipPath id="SVGID_14_">
		<use xlink:href="#SVGID_13_"  style="overflow:visible;"/>
	</clipPath>
	<g class="st6">
		<defs>
			<rect id="SVGID_15_" x="3.8" y="3" width="199.5" height="197.7"/>
		</defs>
		<clipPath id="SVGID_16_">
			<use xlink:href="#SVGID_15_"  style="overflow:visible;"/>
		</clipPath>
		<rect x="127.9" y="10.1" class="st7" width="37.4" height="35.8"/>
	</g>
</g>
<g>
	<defs>
		<polygon id="SVGID_17_" points="178,46.2 181.3,56.1 191.8,56.1 183.3,62.2 186.5,72 178,66 169.5,72 172.8,62.2 164.3,56.1
			174.8,56.1 		"/>
	</defs>
	<clipPath id="SVGID_18_">
		<use xlink:href="#SVGID_17_"  style="overflow:visible;"/>
	</clipPath>
	<g class="st8">
		<defs>
			<rect id="SVGID_19_" x="3.8" y="3" width="199.5" height="197.7"/>
		</defs>
		<clipPath id="SVGID_20_">
			<use xlink:href="#SVGID_19_"  style="overflow:visible;"/>
		</clipPath>
		<rect x="159.3" y="41.2" class="st9" width="37.5" height="35.8"/>
	</g>
</g>
<g>
	<defs>
		<polygon id="SVGID_21_" points="189.7,89 192.9,98.8 203.4,98.8 194.9,104.9 198.2,114.8 189.7,108.7 181.2,114.8 184.4,104.9
			175.9,98.8 186.4,98.8 		"/>
	</defs>
	<clipPath id="SVGID_22_">
		<use xlink:href="#SVGID_21_"  style="overflow:visible;"/>
	</clipPath>
	<g class="st10">
		<defs>
			<rect id="SVGID_23_" x="3.8" y="3" width="199.5" height="197.7"/>
		</defs>
		<clipPath id="SVGID_24_">
			<use xlink:href="#SVGID_23_"  style="overflow:visible;"/>
		</clipPath>
		<rect x="170.9" y="84" class="st11" width="37.5" height="35.8"/>
	</g>
</g>
<g>
	<defs>
		<polygon id="SVGID_25_" points="178,131.8 181.2,141.7 191.7,141.7 183.2,147.8 186.5,157.7 178,151.6 169.5,157.7 172.7,147.8
			164.2,141.7 174.7,141.7 		"/>
	</defs>
	<clipPath id="SVGID_26_">
		<use xlink:href="#SVGID_25_"  style="overflow:visible;"/>
	</clipPath>
	<g class="st12">
		<defs>
			<rect id="SVGID_27_" x="3.8" y="3" width="199.5" height="197.7"/>
		</defs>
		<clipPath id="SVGID_28_">
			<use xlink:href="#SVGID_27_"  style="overflow:visible;"/>
		</clipPath>
		<rect x="159.2" y="126.8" class="st13" width="37.5" height="35.9"/>
	</g>
</g>
<g>
	<defs>
		<polygon id="SVGID_29_" points="146.6,162.8 149.8,172.7 160.3,172.7 151.8,178.7 155.1,188.6 146.6,182.5 138.1,188.6
			141.3,178.7 132.8,172.7 143.3,172.7 		"/>
	</defs>
	<clipPath id="SVGID_30_">
		<use xlink:href="#SVGID_29_"  style="overflow:visible;"/>
	</clipPath>
	<g class="st14">
		<defs>
			<rect id="SVGID_31_" x="3.8" y="3" width="199.5" height="197.7"/>
		</defs>
		<clipPath id="SVGID_32_">
			<use xlink:href="#SVGID_31_"  style="overflow:visible;"/>
		</clipPath>
		<rect x="127.8" y="157.8" class="st15" width="37.5" height="35.8"/>
	</g>
</g>
<g>
	<defs>
		<polygon id="SVGID_33_" points="104,174.1 107.3,183.9 117.7,183.9 109.3,190.1 112.5,199.9 104,193.8 95.5,199.9 98.8,190.1
			90.3,183.9 100.8,183.9 		"/>
	</defs>
	<clipPath id="SVGID_34_">
		<use xlink:href="#SVGID_33_"  style="overflow:visible;"/>
	</clipPath>
	<g class="st16">
		<defs>
			<rect id="SVGID_35_" x="3.8" y="3" width="199.5" height="197.7"/>
		</defs>
		<clipPath id="SVGID_36_">
			<use xlink:href="#SVGID_35_"  style="overflow:visible;"/>
		</clipPath>
		<rect x="85.3" y="169.1" class="st17" width="37.4" height="35.9"/>
	</g>
</g>
<g>
	<defs>
		<polygon id="SVGID_37_" points="60.8,162.6 64.1,172.4 74.6,172.4 66.1,178.5 69.3,188.4 60.8,182.3 52.3,188.4 55.6,178.5
			47.1,172.4 57.6,172.4 		"/>
	</defs>
	<clipPath id="SVGID_38_">
		<use xlink:href="#SVGID_37_"  style="overflow:visible;"/>
	</clipPath>
	<g class="st18">
		<defs>
			<rect id="SVGID_39_" x="3.8" y="3" width="199.5" height="197.7"/>
		</defs>
		<clipPath id="SVGID_40_">
			<use xlink:href="#SVGID_39_"  style="overflow:visible;"/>
		</clipPath>
		<rect x="42.1" y="157.6" class="st19" width="37.5" height="35.8"/>
	</g>
</g>
<g>
	<defs>
		<polygon id="SVGID_41_" points="30.1,131.7 33.3,141.5 43.8,141.5 35.3,147.6 38.5,157.5 30.1,151.4 21.6,157.5 24.8,147.6
			16.3,141.5 26.8,141.5 		"/>
	</defs>
	<clipPath id="SVGID_42_">
		<use xlink:href="#SVGID_41_"  style="overflow:visible;"/>
	</clipPath>
	<g class="st20">
		<defs>
			<rect id="SVGID_43_" x="3.8" y="3" width="199.5" height="197.7"/>
		</defs>
		<clipPath id="SVGID_44_">
			<use xlink:href="#SVGID_43_"  style="overflow:visible;"/>
		</clipPath>
		<rect x="11.3" y="126.7" class="st21" width="37.5" height="35.8"/>
	</g>
</g>
<g>
	<defs>
		<polygon id="SVGID_45_" points="18.2,88.2 21.5,98.1 32.1,98.1 23.5,104.3 26.8,114.3 18.2,108.1 9.7,114.3 12.9,104.3 4.4,98.1
			14.9,98.1 		"/>
	</defs>
	<clipPath id="SVGID_46_">
		<use xlink:href="#SVGID_45_"  style="overflow:visible;"/>
	</clipPath>
	<g class="st22">
		<defs>
			<rect id="SVGID_47_" x="3.8" y="3" width="199.5" height="197.7"/>
		</defs>
		<clipPath id="SVGID_48_">
			<use xlink:href="#SVGID_47_"  style="overflow:visible;"/>
		</clipPath>
		<rect x="-0.6" y="83.2" class="st23" width="37.7" height="36.1"/>
	</g>
</g>
<g>
	<defs>
		<rect id="SVGID_49_" x="-84.2" y="-92" width="375" height="667"/>
	</defs>
	<clipPath id="SVGID_50_">
		<use xlink:href="#SVGID_49_"  style="overflow:visible;"/>
	</clipPath>
	<g class="st24">
		<text transform="matrix(1 0 0 1 59.0667 99.031)"><tspan x="0" y="0" class="st25 st26 st27">Country</tspan></text>
	</g>
	<g class="st24">
		<text transform="matrix(1 0 0 1 55.8328 133.031)" class="st25 st26 st27">Matcher</text>
	</g>
</g>
</svg>
