<?xml version="1.0" encoding="UTF-8"?>
<svg width="60px" height="60px" viewBox="0 0 60 60" version="1.1" xmlns="http://www.w3.org/2000/svg" xmlns:xlink="http://www.w3.org/1999/xlink">
    <!-- Generator: Sketch 49.1 (51147) - http://www.bohemiancoding.com/sketch -->
    <title>Icon Like</title>
    <desc>Created with Sketch.</desc>
    <defs>
        <polygon id="path-1" points="0 0.0002 59.9997333 0.0002 59.9997333 59.9995333 0 59.9995333"></polygon>
    </defs>
    <g id="Icon-Like" stroke="none" stroke-width="1" fill="none" fill-rule="evenodd">
        <g>
            <g id="Group-3">
                <mask id="mask-2" fill="white">
                    <use xlink:href="#path-1"></use>
                </mask>
                <g id="Clip-2"></g>
                <path d="M49.8444,49.8448667 C44.7624,54.9248667 37.7524,58.0642 29.9997333,58.0648667 C22.2470667,58.0642 15.2370667,54.9248667 10.1550667,49.8448667 C5.07506667,44.7628667 1.93573333,37.7528667 1.93506667,30.0002 C1.93573333,22.2475333 5.07506667,15.2375333 10.1550667,10.1555333 C15.2370667,5.07553333 22.2470667,1.9362 29.9997333,1.93553333 C37.7524,1.9362 44.7624,5.07553333 49.8444,10.1555333 C54.9244,15.2375333 58.0637333,22.2475333 58.0644,30.0002 C58.0637333,37.7528667 54.9244,44.7628667 49.8444,49.8448667 M29.9997333,0.0002 C13.4310667,0.000866666667 0.0004,13.4315333 -0.000266666667,30.0002 C0.0004,46.5688667 13.4310667,59.9988667 29.9997333,59.9995333 C46.5684,59.9988667 59.9990667,46.5695333 59.9997333,30.0002 C59.9990667,13.4315333 46.5684,0.000866666667 29.9997333,0.0002" id="Fill-1" fill="#FFFFFF" mask="url(#mask-2)"></path>
            </g>
            <path d="M16.2747996,27.2406736 C16.2754454,25.2139137 17.0749631,23.3912211 18.3691743,22.0641207 C19.6646771,20.739008 21.4432489,19.9234011 23.407815,19.9227386 C25.508002,19.9227386 27.4099242,20.8595933 28.7118852,22.3543204 L28.7319054,22.3695592 L28.7919661,22.4358149 C28.8546101,22.4921321 28.9230664,22.5351983 28.9947517,22.5709764 L29.0347922,22.5895279 C29.1329559,22.6339192 29.2362862,22.661084 29.340908,22.6690347 L29.3822401,22.6703598 C29.4881536,22.6736726 29.5940671,22.6597589 29.6954599,22.6266311 L29.7348545,22.6113923 C29.8368932,22.572964 29.9324736,22.5166467 30.0183669,22.4411153 L30.0364497,22.4305144 L30.0513034,22.4099752 L30.1158848,22.34902 C31.3920132,20.8609184 33.2926438,19.9227386 35.3934766,19.9227386 C37.3580428,19.9234011 39.1353228,20.739008 40.4308257,22.0641207 C41.7250369,23.3912211 42.5245546,25.2139137 42.5252004,27.2406736 C42.5245546,29.0156621 41.9071564,30.6203736 40.8712708,31.9063955 L40.8609378,31.9189841 C40.7291917,32.0885985 40.558051,32.2674887 40.3365368,32.4934204 L40.3287871,32.5053465 L40.3165166,32.5146223 L29.3719071,44.4393117 L18.4615257,32.494083 L18.4518385,32.4867949 L18.4415055,32.4708935 C18.272948,32.2979663 18.0921201,32.0925738 17.9235627,31.8991074 C16.8909061,30.6144106 16.2760912,29.0123493 16.2747996,27.2406736 M35.392185,18 C33.0988996,18 30.9877337,18.8884881 29.406781,20.3553879 C27.8129121,18.8898132 25.7017462,18 23.4071692,18 C18.4473178,18.0013251 14.4012932,22.1277261 14.4000016,27.2413362 C14.39871,29.4821018 15.1891863,31.5313886 16.4846891,33.1334499 L16.506001,33.158627 C16.6777875,33.3567314 16.877344,33.5839882 17.0898168,33.8032944 L17.0930459,33.8092574 L28.6866985,46.5011871 L28.7112394,46.5190761 L28.7280305,46.5435907 L28.8610682,46.6283979 C28.914025,46.6641759 28.962461,46.705917 29.0199385,46.729769 C29.0767701,46.7536211 29.1348934,46.7589215 29.1943082,46.7715101 C29.2530773,46.7827735 29.3099089,46.8 29.3699696,46.8 C29.4300303,46.8 29.486862,46.7827735 29.5462769,46.7715101 C29.6050459,46.7595841 29.663815,46.7536211 29.7206466,46.7304316 C29.7781241,46.7065796 29.8265601,46.6655011 29.8788711,46.629723 L30.0119087,46.5449158 L30.0293457,46.5197387 L30.0538867,46.5018496 L41.6636846,33.851661 C41.8787406,33.6303672 42.0989632,33.4057606 42.3153109,33.1314622 L42.3159567,33.1321248 L42.321769,33.1241741 L42.3256439,33.1195362 C43.6146886,31.5194626 44.40129,29.4748137 44.3999984,27.2406736 C44.3974152,22.1277261 40.3513906,18.0006626 35.392185,18" id="Fill-4" fill="#FFFFFF"></path>
        </g>
    </g>
</svg>