<?xml version="1.0" encoding="UTF-8"?>
<svg width="19px" height="18px" viewBox="0 0 19 18" version="1.1" xmlns="http://www.w3.org/2000/svg" xmlns:xlink="http://www.w3.org/1999/xlink">
    <!-- Generator: Sketch 49.1 (51147) - http://www.bohemiancoding.com/sketch -->
    <title></title>
    <desc>Created with Sketch.</desc>
    <defs></defs>
    <g id="-" stroke="none" stroke-width="1" fill="none" fill-rule="evenodd">
        <g id="00" transform="translate(-336.000000, -40.000000)" fill="#FFFFFF">
            <g id="btn-info" transform="translate(25.000000, 40.000000)">
                <path d="M320.517557,0.53128688 C322.087866,0.53128688 323.540987,0.923864248 324.876921,1.70901845 C326.212856,2.49417265 327.2734,3.55471717 328.058554,4.89065149 C328.843709,6.2265858 329.236286,7.67970716 329.236286,9.25001609 C329.236286,10.820325 328.843709,12.2734464 328.058554,13.6093807 C327.2734,14.945315 326.212856,16.0058595 324.876921,16.7910137 C323.540987,17.5761679 322.087866,17.9687453 320.517557,17.9687453 C318.947248,17.9687453 317.494126,17.5761679 316.158192,16.7910137 C314.822258,16.0058595 313.761713,14.945315 312.976559,13.6093807 C312.191405,12.2734464 311.798827,10.820325 311.798827,9.25001609 C311.798827,7.67970716 312.191405,6.2265858 312.976559,4.89065149 C313.761713,3.55471717 314.822258,2.49417265 316.158192,1.70901845 C317.494126,0.923864248 318.947248,0.53128688 320.517557,0.53128688 Z M320.517557,16.2812493 C321.783179,16.2812493 322.955051,15.9648438 324.033173,15.3320328 C325.111296,14.6992219 325.966762,13.8437553 326.599573,12.7656327 C327.232384,11.6875101 327.54879,10.5156381 327.54879,9.25001609 C327.54879,7.98439411 327.232384,6.81252208 326.599573,5.73439948 C325.966762,4.65627687 325.111296,3.80081034 324.033173,3.16799934 C322.955051,2.53518835 321.783179,2.21878286 320.517557,2.21878286 C319.251935,2.21878286 318.080063,2.53518835 317.00194,3.16799934 C315.923817,3.80081034 315.068351,4.65627687 314.43554,5.73439948 C313.802729,6.81252208 313.486323,7.98439411 313.486323,9.25001609 C313.486323,10.5156381 313.802729,11.6875101 314.43554,12.7656327 C315.068351,13.8437553 315.923817,14.6992219 317.00194,15.3320328 C318.080063,15.9648438 319.251935,16.2812493 320.517557,16.2812493 Z M324.279266,7.31642695 C324.279266,7.94923794 324.091767,8.48829898 323.716768,8.9336106 C323.482393,9.1914223 323.095675,9.47267163 322.556614,9.77735859 C322.275365,9.94142087 322.087866,10.0703265 321.994116,10.1640764 C321.830053,10.2812635 321.748022,10.4218881 321.748022,10.5859504 L321.748022,10.7968874 C321.748022,10.9140744 321.707007,11.0136839 321.624976,11.0957148 C321.542945,11.1777457 321.443336,11.2187614 321.326148,11.2187614 L319.708965,11.2187614 C319.591778,11.2187614 319.492168,11.1777457 319.410137,11.0957148 C319.328107,11.0136839 319.287091,10.9140744 319.287091,10.7968874 L319.287091,10.4804819 C319.287091,9.94142087 319.47459,9.48439071 319.84959,9.10939143 C320.060527,8.89845443 320.412088,8.65236127 320.904274,8.37111194 L320.974587,8.33595577 C321.326148,8.12501878 321.572242,7.96095649 321.712866,7.84376945 C321.876929,7.67970716 321.958959,7.49220778 321.958959,7.28127079 C321.958959,7.00002146 321.812475,6.76564684 321.519507,6.57814746 C321.22654,6.39064809 320.898415,6.29689813 320.535135,6.29689813 C320.171855,6.29689813 319.861308,6.37892901 319.603496,6.5429913 C319.392559,6.68361596 319.134748,6.95314675 318.830061,7.35158312 C318.759748,7.42189545 318.671858,7.46877016 318.566389,7.49220778 C318.460921,7.51564541 318.361312,7.49220778 318.267562,7.42189545 L317.283189,6.68361596 C317.189439,6.61330363 317.136705,6.51955367 317.124987,6.40236663 C317.113268,6.28517959 317.130846,6.17971109 317.177721,6.08596114 C317.623032,5.45315015 318.126937,4.9785419 318.689436,4.66213641 C319.251935,4.34573091 319.93162,4.18752816 320.728494,4.18752816 C321.290992,4.18752816 321.853491,4.32815283 322.41599,4.60940216 C322.978488,4.89065149 323.429659,5.26565077 323.769502,5.73439948 C324.109345,6.20314818 324.279266,6.73049067 324.279266,7.31642695 Z M321.994116,13.1875067 C321.994116,13.5859431 321.847631,13.9316457 321.554664,14.2246136 C321.261696,14.5175815 320.915993,14.6640657 320.517557,14.6640657 C320.11912,14.6640657 319.773418,14.5175815 319.48045,14.2246136 C319.187482,13.9316457 319.040998,13.5859431 319.040998,13.1875067 C319.040998,12.7890703 319.187482,12.4433677 319.48045,12.1503998 C319.773418,11.8574319 320.11912,11.7109477 320.517557,11.7109477 C320.915993,11.7109477 321.261696,11.8574319 321.554664,12.1503998 C321.847631,12.4433677 321.994116,12.7890703 321.994116,13.1875067 Z" id=""></path>
            </g>
        </g>
    </g>
</svg>