<?xml version="1.0" encoding="UTF-8"?>
<svg width="37px" height="38px" viewBox="0 0 37 38" version="1.1" xmlns="http://www.w3.org/2000/svg" xmlns:xlink="http://www.w3.org/1999/xlink">
    <!-- Generator: Sketch 49.1 (51147) - http://www.bohemiancoding.com/sketch -->
    <title></title>
    <desc>Created with Sketch.</desc>
    <defs></defs>
    <g id="-" stroke="none" stroke-width="1" fill="none" fill-rule="evenodd">
        <g id="00" transform="translate(-169.000000, -557.000000)" fill="#FFFFFF">
            <g id="share" transform="translate(19.000000, 455.000000)">
                <path d="M182.978437,102.875081 C184.072184,102.875081 185.00187,103.257893 185.767493,104.023516 C186.533116,104.789139 186.915928,105.718825 186.915928,106.812572 L186.915928,135.687503 C186.915928,136.78125 186.533116,137.710936 185.767493,138.476559 C185.00187,139.242182 184.072184,139.624994 182.978437,139.624994 L154.103506,139.624994 C153.009759,139.624994 152.080073,139.242182 151.31445,138.476559 C150.548828,137.710936 150.166016,136.78125 150.166016,135.687503 L150.166016,106.812572 C150.166016,105.718825 150.548828,104.789139 151.31445,104.023516 C152.080073,103.257893 153.009759,102.875081 154.103506,102.875081 L182.978437,102.875081 Z M178.958916,115.918019 C179.997976,115.152396 180.900318,114.22271 181.665941,113.128963 C180.62688,113.566462 179.587821,113.839899 178.54876,113.949274 C179.697195,113.238337 180.490162,112.253965 180.927661,110.996156 C179.833914,111.652404 178.685479,112.089903 177.482357,112.308653 C176.443296,111.160218 175.158144,110.586 173.626897,110.586 C172.53315,110.586 171.535105,110.886781 170.632764,111.488342 C169.730422,112.089903 169.060501,112.896542 168.623003,113.908258 C168.185504,114.919974 168.103473,116.027393 168.37691,117.230516 C166.134728,117.121142 164.056607,116.560595 162.14255,115.548879 C160.228492,114.537163 158.587871,113.210994 157.220686,111.570373 C156.7285,112.390684 156.482407,113.279353 156.482407,114.236382 C156.482407,115.193412 156.701157,116.068409 157.138655,116.861376 C157.576154,117.654343 158.177716,118.29692 158.943338,118.789106 C158.06834,118.734418 157.24803,118.488325 156.482407,118.050826 L156.482407,118.132857 C156.482407,119.445354 156.892562,120.593789 157.712873,121.578162 C158.533183,122.562534 159.572244,123.19144 160.830053,123.464876 C160.06443,123.628938 159.244119,123.656281 158.369121,123.546907 C158.697245,124.640654 159.32615,125.529325 160.255835,126.212916 C161.18552,126.896508 162.224581,127.238305 163.373015,127.238305 C161.40427,128.769551 159.189432,129.535174 156.7285,129.535174 L155.416003,129.535174 C157.931623,131.121107 160.693334,131.914075 163.70114,131.914075 C166.81832,131.914075 169.607376,131.121107 172.068307,129.535174 C174.255802,128.113303 175.978455,126.171901 177.236264,123.710969 C178.384698,121.4141 178.958916,119.035199 178.958916,116.574267 L178.958916,115.918019 Z" id=""></path>
            </g>
        </g>
    </g>
</svg>