<?xml version="1.0" encoding="UTF-8"?>
<svg width="200px" height="198px" viewBox="0 0 200 198" version="1.1" xmlns="http://www.w3.org/2000/svg" xmlns:xlink="http://www.w3.org/1999/xlink">
    <!-- Generator: Sketch 49.1 (51147) - http://www.bohemiancoding.com/sketch -->
    <title>Logo</title>
    <desc>Created with Sketch.</desc>
    <defs></defs>
    <g id="Logo" stroke="none" stroke-width="1" fill="none" fill-rule="evenodd">
        <g id="graphics-/-eu-flag" fill="#FFD300">
            <g id="eu-[Konvertiert]">
                <polygon id="Shape" fill-rule="nonzero" points="26.6595745 42.5384043 29.8617021 52.4173404 40.3617021 52.4173404 31.8723404 58.536383 35.1489362 68.4153191 26.6595745 62.2962766 18.1702128 68.4153191 21.3723404 58.536383 12.8829787 52.4173404 23.3829787 52.4173404"></polygon>
                <polygon id="Shape" fill-rule="nonzero" points="56.9680851 12.0169149 60.1702128 21.8958511 70.6702128 21.8958511 62.1808511 27.9411702 65.4574468 37.8201064 56.9680851 31.7747872 48.4787234 37.8201064 51.6808511 27.9411702 43.1914894 21.8958511 53.6914894 21.8958511"></polygon>
                <polygon id="Shape" fill-rule="nonzero" points="100.159574 0.442340426 103.361702 10.3212766 113.861702 10.3212766 105.37234 16.4403191 108.648936 26.3192553 100.159574 20.2002128 91.6702128 26.3192553 94.8723404 16.4403191 86.3829787 10.3212766 96.8829787 10.3212766"></polygon>
                <polygon id="Shape" fill-rule="nonzero" points="142.829787 12.0906383 146.106383 21.8958511 156.531915 21.8958511 148.042553 28.0148936 151.319149 37.8938298 142.829787 31.7747872 134.340426 37.8938298 137.617021 28.0148936 129.12766 21.8958511 139.62766 21.8958511"></polygon>
                <polygon id="Shape" fill-rule="nonzero" points="174.255319 43.2019149 177.531915 53.0808511 188.031915 53.0808511 179.542553 59.1261702 182.744681 69.0051064 174.255319 62.9597872 165.765957 69.0051064 169.042553 59.1261702 160.553191 53.0808511 171.053191 53.0808511"></polygon>
                <polygon id="Shape" fill-rule="nonzero" points="185.946809 85.9614894 189.148936 95.7667021 199.648936 95.7667021 191.159574 101.885745 194.43617 111.764681 185.946809 105.645638 177.457447 111.764681 180.659574 101.885745 172.170213 95.7667021 182.670213 95.7667021"></polygon>
                <polygon id="Shape" fill-rule="nonzero" points="174.255319 128.794787 177.457447 138.673723 187.957447 138.673723 179.468085 144.792766 182.744681 154.671702 174.255319 148.55266 165.765957 154.671702 168.968085 144.792766 160.478723 138.673723 170.978723 138.673723"></polygon>
                <polygon id="Shape" fill-rule="nonzero" points="142.829787 159.758617 146.031915 169.637553 156.531915 169.637553 148.042553 175.682872 151.319149 185.561809 142.829787 179.516489 134.340426 185.561809 137.542553 175.682872 129.053191 169.637553 139.553191 169.637553"></polygon>
                <polygon id="Shape" fill-rule="nonzero" points="100.234043 171.038298 103.510638 180.917234 113.93617 180.917234 105.521277 187.036277 108.723404 196.915213 100.234043 190.79617 91.7446809 196.915213 95.0212766 187.036277 86.5319149 180.917234 97.0319149 180.917234"></polygon>
                <polygon id="Shape" fill-rule="nonzero" points="57.0425532 159.537447 60.3191489 169.416383 70.8191489 169.416383 62.3297872 175.461702 65.5319149 185.340638 57.0425532 179.295319 48.5531915 185.340638 51.8297872 175.461702 43.3404255 169.416383 53.8404255 169.416383"></polygon>
                <polygon id="Shape" fill-rule="nonzero" points="26.287234 128.64734 29.4893617 138.452553 39.9893617 138.452553 31.5 144.571596 34.7021277 154.450532 26.287234 148.331489 17.7978723 154.450532 21 144.571596 12.5106383 138.452553 23.0106383 138.452553"></polygon>
                <polygon id="Shape" fill-rule="nonzero" points="14.4468085 85.1505319 17.7234043 95.1031915 28.2978723 95.1031915 19.7340426 101.295957 23.0106383 111.248617 14.4468085 105.055851 5.88297872 111.248617 9.15957447 101.295957 0.595744681 95.1031915 11.1702128 95.1031915"></polygon>
            </g>
        </g>
        <path d="M69.7583008,85.2324219 C69.6411127,87.5175896 68.9990293,89.2656189 67.8320312,90.4765625 C66.6650332,91.6875061 65.0171005,92.2929688 62.8881836,92.2929688 C60.749501,92.2929688 59.0502993,91.4799886 57.7905273,89.8540039 C56.5307554,88.2280192 55.9008789,86.0234514 55.9008789,83.2402344 L55.9008789,79.3730469 C55.9008789,76.5995955 56.5478451,74.4072346 57.8417969,72.7958984 C59.1357487,71.1845623 60.9008677,70.3789062 63.137207,70.3789062 C65.1977642,70.3789062 66.7919865,70.9965759 67.9199219,72.2319336 C69.0478572,73.4672913 69.660644,75.2324104 69.7583008,77.5273438 L67.0483398,77.5273438 C66.9311518,75.7890538 66.5649445,74.5488318 65.949707,73.8066406 C65.3344696,73.0644494 64.396979,72.6933594 63.137207,72.6933594 C61.6821216,72.6933594 60.5639688,73.2622013 59.7827148,74.3999023 C59.0014609,75.5376033 58.6108398,77.2050671 58.6108398,79.4023438 L58.6108398,83.3134766 C58.6108398,85.4716905 58.9746057,87.1269474 59.7021484,88.2792969 C60.4296911,89.4316464 61.4916922,90.0078125 62.8881836,90.0078125 C64.284675,90.0078125 65.2905243,89.6611363 65.9057617,88.9677734 C66.5209992,88.2744106 66.9018547,87.0293059 67.0483398,85.2324219 L69.7583008,85.2324219 Z M72.4829102,83.3427734 C72.4829102,81.0380744 73.0419866,79.2143622 74.1601562,77.871582 C75.2783259,76.5288019 76.7553619,75.8574219 78.5913086,75.8574219 C80.4272553,75.8574219 81.9042913,76.5117122 83.0224609,77.8203125 C84.1406306,79.1289128 84.7143553,80.9111215 84.7436523,83.1669922 L84.7436523,84.8369141 C84.7436523,87.1318474 84.1870173,88.9482355 83.0737305,90.2861328 C81.9604437,91.6240301 80.4760835,92.2929688 78.6206055,92.2929688 C76.7846588,92.2929688 75.3125055,91.6435612 74.2041016,90.3447266 C73.0956976,89.0458919 72.5219729,87.288097 72.4829102,85.0712891 L72.4829102,83.3427734 Z M75.0756836,84.8369141 C75.0756836,86.4677816 75.3955046,87.7495071 76.0351562,88.6821289 C76.6748079,89.6147508 77.5366157,90.0810547 78.6206055,90.0810547 C80.9057731,90.0810547 82.0825192,88.4306806 82.1508789,85.1298828 L82.1508789,83.3427734 C82.1508789,81.7216716 81.8286165,80.4399461 81.184082,79.4975586 C80.5395476,78.5551711 79.6752984,78.0839844 78.5913086,78.0839844 C77.5268501,78.0839844 76.6748079,78.5551711 76.0351562,79.4975586 C75.3955046,80.4399461 75.0756836,81.7167888 75.0756836,83.328125 L75.0756836,84.8369141 Z M96.1694336,90.6083984 C95.3100543,91.7314509 94.055184,92.2929688 92.4047852,92.2929688 C90.9692311,92.2929688 89.8852576,91.7973682 89.152832,90.8061523 C88.4204065,89.8149365 88.0493165,88.3720798 88.0395508,86.4775391 L88.0395508,76.1503906 L90.6176758,76.1503906 L90.6176758,86.2871094 C90.6176758,88.7578249 91.3598559,89.9931641 92.8442383,89.9931641 C94.4165118,89.9931641 95.5004853,89.2900461 96.0961914,87.8837891 L96.0961914,76.1503906 L98.6889648,76.1503906 L98.6889648,92 L96.2280273,92 L96.1694336,90.6083984 Z M105.031738,76.1503906 L105.10498,77.8642578 C106.110845,76.5263605 107.395012,75.8574219 108.95752,75.8574219 C111.760268,75.8574219 113.181152,77.7275204 113.220215,81.4677734 L113.220215,92 L110.64209,92 L110.64209,81.5849609 C110.64209,80.3447204 110.434572,79.4633815 110.019531,78.940918 C109.60449,78.4184544 108.981938,78.1572266 108.151855,78.1572266 C107.507321,78.1572266 106.928714,78.3720682 106.416016,78.8017578 C105.903318,79.2314475 105.490724,79.7929653 105.178223,80.4863281 L105.178223,92 L102.585449,92 L102.585449,76.1503906 L105.031738,76.1503906 Z M120.500488,72.3125 L120.500488,76.1503906 L122.888184,76.1503906 L122.888184,78.2451172 L120.500488,78.2451172 L120.500488,88.0742188 C120.500488,88.6992219 120.603026,89.17285 120.808105,89.4951172 C121.013185,89.8173844 121.364744,89.9785156 121.862793,89.9785156 C122.204592,89.9785156 122.551268,89.9199225 122.902832,89.8027344 L122.873535,92 C122.287595,92.1953135 121.687015,92.2929688 121.071777,92.2929688 C120.046382,92.2929688 119.265139,91.9267615 118.728027,91.1943359 C118.190915,90.4619104 117.922363,89.4267645 117.922363,88.0888672 L117.922363,78.2451172 L115.505371,78.2451172 L115.505371,76.1503906 L117.922363,76.1503906 L117.922363,72.3125 L120.500488,72.3125 Z M132.512207,78.5820312 C132.150877,78.5136715 131.760256,78.4794922 131.340332,78.4794922 C130.0122,78.4794922 129.084475,79.207024 128.557129,80.6621094 L128.557129,92 L125.964355,92 L125.964355,76.1503906 L128.483887,76.1503906 L128.527832,77.7617188 C129.221195,76.4921812 130.20263,75.8574219 131.472168,75.8574219 C131.882326,75.8574219 132.22412,75.9257806 132.497559,76.0625 L132.512207,78.5820312 Z M139.689941,87.6933594 L142.575684,76.1503906 L145.32959,76.1503906 L140.144043,94.2412109 C139.753416,95.5986396 139.201664,96.6313441 138.48877,97.3393555 C137.775875,98.0473668 136.965337,98.4013672 136.057129,98.4013672 C135.705565,98.4013672 135.25635,98.323243 134.709473,98.1669922 L134.709473,95.9697266 L135.280762,96.0283203 C136.032719,96.0283203 136.621092,95.8500994 137.045898,95.4936523 C137.470705,95.1372052 137.81494,94.5195356 138.078613,93.640625 L138.591309,91.8681641 L133.933105,76.1503906 L136.760254,76.1503906 L139.689941,87.6933594 Z M57.0507812,104.671875 L62.6171875,122.074219 L68.1835938,104.671875 L71.640625,104.671875 L71.640625,126 L68.9599609,126 L68.9599609,117.694336 L69.2089844,109.374023 L63.6279297,126 L61.5771484,126 L56.0253906,109.432617 L56.2744141,117.694336 L56.2744141,126 L53.59375,126 L53.59375,104.671875 L57.0507812,104.671875 Z M84.0478516,126 C83.8916008,125.658201 83.7792972,125.082035 83.7109375,124.271484 C82.7929642,125.619147 81.6211009,126.292969 80.1953125,126.292969 C78.7597584,126.292969 77.6391642,125.890141 76.8334961,125.084473 C76.027828,124.278805 75.625,123.143562 75.625,121.678711 C75.625,120.067375 76.1718695,118.788091 77.265625,117.84082 C78.3593805,116.89355 79.8583889,116.410156 81.7626953,116.390625 L83.6669922,116.390625 L83.6669922,114.706055 C83.6669922,113.758784 83.4570333,113.084963 83.0371094,112.68457 C82.6171854,112.284178 81.9775434,112.083984 81.1181641,112.083984 C80.3369102,112.083984 79.7021509,112.315916 79.2138672,112.779785 C78.7255835,113.243655 78.4814453,113.832028 78.4814453,114.544922 L75.8886719,114.544922 C75.8886719,113.734371 76.1279273,112.960453 76.6064453,112.223145 C77.0849633,111.485836 77.7294881,110.907229 78.5400391,110.487305 C79.35059,110.067381 80.2539013,109.857422 81.25,109.857422 C82.8711019,109.857422 84.1039997,110.26025 84.9487305,111.065918 C85.7934613,111.871586 86.2255858,113.045891 86.2451172,114.588867 L86.2451172,122.586914 C86.2548829,123.807623 86.4208968,124.867183 86.7431641,125.765625 L86.7431641,126 L84.0478516,126 Z M80.5908203,123.93457 C81.2255891,123.93457 81.8310518,123.758791 82.4072266,123.407227 C82.9834013,123.055662 83.403319,122.616214 83.6669922,122.088867 L83.6669922,118.30957 L82.2021484,118.30957 C80.9716735,118.329102 80.0000036,118.604978 79.2871094,119.137207 C78.5742152,119.669436 78.2177734,120.414058 78.2177734,121.371094 C78.2177734,122.269536 78.3984357,122.921385 78.7597656,123.32666 C79.1210956,123.731936 79.731441,123.93457 80.5908203,123.93457 Z M93.6572266,106.3125 L93.6572266,110.150391 L96.0449219,110.150391 L96.0449219,112.245117 L93.6572266,112.245117 L93.6572266,122.074219 C93.6572266,122.699222 93.7597646,123.17285 93.9648438,123.495117 C94.1699229,123.817384 94.5214819,123.978516 95.0195312,123.978516 C95.3613298,123.978516 95.7080061,123.919922 96.0595703,123.802734 L96.0302734,126 C95.444333,126.195313 94.8437531,126.292969 94.2285156,126.292969 C93.2031199,126.292969 92.4218777,125.926761 91.8847656,125.194336 C91.3476536,124.46191 91.0791016,123.426765 91.0791016,122.088867 L91.0791016,112.245117 L88.6621094,112.245117 L88.6621094,110.150391 L91.0791016,110.150391 L91.0791016,106.3125 L93.6572266,106.3125 Z M104.628906,124.081055 C105.488286,124.081055 106.176755,123.814944 106.694336,123.282715 C107.211917,122.750486 107.495117,121.991216 107.543945,121.004883 L109.990234,121.004883 C109.93164,122.528328 109.392095,123.790522 108.371582,124.791504 C107.351069,125.792485 106.103523,126.292969 104.628906,126.292969 C102.666006,126.292969 101.169439,125.675299 100.13916,124.439941 C99.1088816,123.204584 98.59375,121.366223 98.59375,118.924805 L98.59375,117.181641 C98.59375,114.789051 99.1064402,112.970221 100.131836,111.725098 C101.157232,110.479974 102.651357,109.857422 104.614258,109.857422 C106.23536,109.857422 107.521968,110.370112 108.474121,111.395508 C109.426274,112.420904 109.93164,113.822257 109.990234,115.599609 L107.543945,115.599609 C107.485351,114.427729 107.204592,113.548831 106.70166,112.962891 C106.198728,112.37695 105.502934,112.083984 104.614258,112.083984 C103.461908,112.083984 102.607425,112.462399 102.050781,113.219238 C101.494138,113.976078 101.206055,115.218741 101.186523,116.947266 L101.186523,118.96875 C101.186523,120.833994 101.4624,122.15234 102.01416,122.923828 C102.565921,123.695316 103.437494,124.081055 104.628906,124.081055 Z M115.571289,111.776367 C116.557622,110.497064 117.817375,109.857422 119.350586,109.857422 C122.153334,109.857422 123.574219,111.72752 123.613281,115.467773 L123.613281,126 L121.035156,126 L121.035156,115.584961 C121.035156,114.34472 120.827639,113.463382 120.412598,112.940918 C119.997557,112.418454 119.375004,112.157227 118.544922,112.157227 C117.900387,112.157227 117.32178,112.372068 116.809082,112.801758 C116.296384,113.231447 115.883791,113.792965 115.571289,114.486328 L115.571289,126 L112.978516,126 L112.978516,103.5 L115.571289,103.5 L115.571289,111.776367 Z M133.134766,126.292969 C131.1621,126.292969 129.648443,125.704596 128.59375,124.527832 C127.539057,123.351068 127.001953,121.625011 126.982422,119.349609 L126.982422,117.430664 C126.982422,115.067371 127.497553,113.214362 128.527832,111.871582 C129.558111,110.528802 130.996085,109.857422 132.841797,109.857422 C134.697275,109.857422 136.08398,110.448236 137.001953,111.629883 C137.919926,112.811529 138.388672,114.652331 138.408203,117.152344 L138.408203,118.851562 L129.560547,118.851562 L129.560547,119.217773 C129.560547,120.917001 129.880368,122.15234 130.52002,122.923828 C131.159671,123.695316 132.080072,124.081055 133.28125,124.081055 C134.042973,124.081055 134.714353,123.937013 135.29541,123.648926 C135.876468,123.360838 136.420896,122.9043 136.928711,122.279297 L138.276367,123.919922 C137.153315,125.501961 135.439465,126.292969 133.134766,126.292969 Z M132.841797,112.083984 C131.767573,112.083984 130.971682,112.452633 130.454102,113.189941 C129.936521,113.92725 129.643555,115.072258 129.575195,116.625 L135.81543,116.625 L135.81543,116.273438 C135.74707,114.769524 135.476077,113.695316 135.002441,113.050781 C134.528806,112.406247 133.808599,112.083984 132.841797,112.083984 Z M148.061523,112.582031 C147.700194,112.513672 147.309572,112.479492 146.889648,112.479492 C145.561517,112.479492 144.633792,113.207024 144.106445,114.662109 L144.106445,126 L141.513672,126 L141.513672,110.150391 L144.033203,110.150391 L144.077148,111.761719 C144.770511,110.492181 145.751947,109.857422 147.021484,109.857422 C147.431643,109.857422 147.773436,109.925781 148.046875,110.0625 L148.061523,112.582031 Z" id="Country-Matcher" fill="#FFFFFF"></path>
    </g>
</svg>